<?xml version="1.0" encoding="utf-8" standalone="no"?>
<!DOCTYPE svg PUBLIC "-//W3C//DTD SVG 1.1//EN"
  "http://www.w3.org/Graphics/SVG/1.1/DTD/svg11.dtd">
<svg xmlns:xlink="http://www.w3.org/1999/xlink" width="1216.8pt" height="244.780567pt" viewBox="0 0 1216.8 244.780567" xmlns="http://www.w3.org/2000/svg" version="1.1">
 <metadata>
  <rdf:RDF xmlns:dc="http://purl.org/dc/elements/1.1/" xmlns:cc="http://creativecommons.org/ns#" xmlns:rdf="http://www.w3.org/1999/02/22-rdf-syntax-ns#">
   <cc:Work>
    <dc:type rdf:resource="http://purl.org/dc/dcmitype/StillImage"/>
    <dc:date>2026-07-03T21:52:03.386888</dc:date>
    <dc:format>image/svg+xml</dc:format>
    <dc:creator>
     <cc:Agent>
      <dc:title>Matplotlib v3.10.8, https://matplotlib.org/</dc:title>
     </cc:Agent>
    </dc:creator>
   </cc:Work>
  </rdf:RDF>
 </metadata>
 <defs>
  <style type="text/css">*{stroke-linejoin: round; stroke-linecap: butt}</style>
 </defs>
 <g id="figure_1">
  <g id="patch_1">
   <path d="M 0 244.780567 
L 1216.8 244.780567 
L 1216.8 0 
L 0 0 
z
" style="fill: #ffffff"/>
  </g>
  <g id="axes_1">
   <g id="patch_2">
    <path d="M 53.164286 112.093996 
L 262.092857 112.093996 
L 262.092857 42.451138 
L 53.164286 42.451138 
z
" clip-path="url(#paa9044688a)" style="fill: #e9edf2; stroke: #2b2b2b; stroke-width: 1.6; stroke-linejoin: miter"/>
   </g>
   <g id="text_1">
    <!-- P -->
    <g style="fill: #d62728" transform="translate(55.95 30.751138) scale(0.1 -0.1)">
     <defs>
      <path id="DejaVuSans-Bold-50" d="M 588 4666 
L 2584 4666 
Q 3475 4666 3951 4270 
Q 4428 3875 4428 3144 
Q 4428 2409 3951 2014 
Q 3475 1619 2584 1619 
L 1791 1619 
L 1791 0 
L 588 0 
L 588 4666 
z
M 1791 3794 
L 1791 2491 
L 2456 2491 
Q 2806 2491 2997 2661 
Q 3188 2831 3188 3144 
Q 3188 3456 2997 3625 
Q 2806 3794 2456 3794 
L 1791 3794 
z
" transform="scale(0.015625)"/>
     </defs>
     <use xlink:href="#DejaVuSans-Bold-50"/>
    </g>
   </g>
   <g id="text_2">
    <!-- symmetry -->
    <g style="fill: #1f77b4" transform="translate(17.457321 97.557567) rotate(-90) scale(0.08 -0.08)">
     <defs>
      <path id="DejaVuSans-73" d="M 2834 3397 
L 2834 2853 
Q 2591 2978 2328 3040 
Q 2066 3103 1784 3103 
Q 1356 3103 1142 2972 
Q 928 2841 928 2578 
Q 928 2378 1081 2264 
Q 1234 2150 1697 2047 
L 1894 2003 
Q 2506 1872 2764 1633 
Q 3022 1394 3022 966 
Q 3022 478 2636 193 
Q 2250 -91 1575 -91 
Q 1294 -91 989 -36 
Q 684 19 347 128 
L 347 722 
Q 666 556 975 473 
Q 1284 391 1588 391 
Q 1994 391 2212 530 
Q 2431 669 2431 922 
Q 2431 1156 2273 1281 
Q 2116 1406 1581 1522 
L 1381 1569 
Q 847 1681 609 1914 
Q 372 2147 372 2553 
Q 372 3047 722 3315 
Q 1072 3584 1716 3584 
Q 2034 3584 2315 3537 
Q 2597 3491 2834 3397 
z
" transform="scale(0.015625)"/>
      <path id="DejaVuSans-79" d="M 2059 -325 
Q 1816 -950 1584 -1140 
Q 1353 -1331 966 -1331 
L 506 -1331 
L 506 -850 
L 844 -850 
Q 1081 -850 1212 -737 
Q 1344 -625 1503 -206 
L 1606 56 
L 191 3500 
L 800 3500 
L 1894 763 
L 2988 3500 
L 3597 3500 
L 2059 -325 
z
" transform="scale(0.015625)"/>
      <path id="DejaVuSans-6d" d="M 3328 2828 
Q 3544 3216 3844 3400 
Q 4144 3584 4550 3584 
Q 5097 3584 5394 3201 
Q 5691 2819 5691 2113 
L 5691 0 
L 5113 0 
L 5113 2094 
Q 5113 2597 4934 2840 
Q 4756 3084 4391 3084 
Q 3944 3084 3684 2787 
Q 3425 2491 3425 1978 
L 3425 0 
L 2847 0 
L 2847 2094 
Q 2847 2600 2669 2842 
Q 2491 3084 2119 3084 
Q 1678 3084 1418 2786 
Q 1159 2488 1159 1978 
L 1159 0 
L 581 0 
L 581 3500 
L 1159 3500 
L 1159 2956 
Q 1356 3278 1631 3431 
Q 1906 3584 2284 3584 
Q 2666 3584 2933 3390 
Q 3200 3197 3328 2828 
z
" transform="scale(0.015625)"/>
      <path id="DejaVuSans-65" d="M 3597 1894 
L 3597 1613 
L 953 1613 
Q 991 1019 1311 708 
Q 1631 397 2203 397 
Q 2534 397 2845 478 
Q 3156 559 3463 722 
L 3463 178 
Q 3153 47 2828 -22 
Q 2503 -91 2169 -91 
Q 1331 -91 842 396 
Q 353 884 353 1716 
Q 353 2575 817 3079 
Q 1281 3584 2069 3584 
Q 2775 3584 3186 3129 
Q 3597 2675 3597 1894 
z
M 3022 2063 
Q 3016 2534 2758 2815 
Q 2500 3097 2075 3097 
Q 1594 3097 1305 2825 
Q 1016 2553 972 2059 
L 3022 2063 
z
" transform="scale(0.015625)"/>
      <path id="DejaVuSans-74" d="M 1172 4494 
L 1172 3500 
L 2356 3500 
L 2356 3053 
L 1172 3053 
L 1172 1153 
Q 1172 725 1289 603 
Q 1406 481 1766 481 
L 2356 481 
L 2356 0 
L 1766 0 
Q 1100 0 847 248 
Q 594 497 594 1153 
L 594 3053 
L 172 3053 
L 172 3500 
L 594 3500 
L 594 4494 
L 1172 4494 
z
" transform="scale(0.015625)"/>
      <path id="DejaVuSans-72" d="M 2631 2963 
Q 2534 3019 2420 3045 
Q 2306 3072 2169 3072 
Q 1681 3072 1420 2755 
Q 1159 2438 1159 1844 
L 1159 0 
L 581 0 
L 581 3500 
L 1159 3500 
L 1159 2956 
Q 1341 3275 1631 3429 
Q 1922 3584 2338 3584 
Q 2397 3584 2469 3576 
Q 2541 3569 2628 3553 
L 2631 2963 
z
" transform="scale(0.015625)"/>
     </defs>
     <use xlink:href="#DejaVuSans-73"/>
     <use xlink:href="#DejaVuSans-79" transform="translate(52.099609 0)"/>
     <use xlink:href="#DejaVuSans-6d" transform="translate(111.279297 0)"/>
     <use xlink:href="#DejaVuSans-6d" transform="translate(208.691406 0)"/>
     <use xlink:href="#DejaVuSans-65" transform="translate(306.103516 0)"/>
     <use xlink:href="#DejaVuSans-74" transform="translate(367.626953 0)"/>
     <use xlink:href="#DejaVuSans-72" transform="translate(406.835938 0)"/>
     <use xlink:href="#DejaVuSans-79" transform="translate(447.949219 0)"/>
    </g>
   </g>
   <g id="text_3">
    <!-- (a) Half MBB beam -->
    <g transform="translate(95.406953 15.558281) scale(0.11 -0.11)">
     <defs>
      <path id="DejaVuSans-Bold-28" d="M 2413 -844 
L 1484 -844 
Q 1006 -72 778 623 
Q 550 1319 550 2003 
Q 550 2688 779 3389 
Q 1009 4091 1484 4856 
L 2413 4856 
Q 2013 4116 1813 3408 
Q 1613 2700 1613 2009 
Q 1613 1319 1811 609 
Q 2009 -100 2413 -844 
z
" transform="scale(0.015625)"/>
      <path id="DejaVuSans-Bold-61" d="M 2106 1575 
Q 1756 1575 1579 1456 
Q 1403 1338 1403 1106 
Q 1403 894 1545 773 
Q 1688 653 1941 653 
Q 2256 653 2472 879 
Q 2688 1106 2688 1447 
L 2688 1575 
L 2106 1575 
z
M 3816 1997 
L 3816 0 
L 2688 0 
L 2688 519 
Q 2463 200 2181 54 
Q 1900 -91 1497 -91 
Q 953 -91 614 226 
Q 275 544 275 1050 
Q 275 1666 698 1953 
Q 1122 2241 2028 2241 
L 2688 2241 
L 2688 2328 
Q 2688 2594 2478 2717 
Q 2269 2841 1825 2841 
Q 1466 2841 1156 2769 
Q 847 2697 581 2553 
L 581 3406 
Q 941 3494 1303 3539 
Q 1666 3584 2028 3584 
Q 2975 3584 3395 3211 
Q 3816 2838 3816 1997 
z
" transform="scale(0.015625)"/>
      <path id="DejaVuSans-Bold-29" d="M 513 -844 
Q 913 -100 1113 609 
Q 1313 1319 1313 2009 
Q 1313 2700 1113 3408 
Q 913 4116 513 4856 
L 1441 4856 
Q 1916 4091 2145 3389 
Q 2375 2688 2375 2003 
Q 2375 1319 2147 623 
Q 1919 -72 1441 -844 
L 513 -844 
z
" transform="scale(0.015625)"/>
      <path id="DejaVuSans-Bold-20" transform="scale(0.015625)"/>
      <path id="DejaVuSans-Bold-48" d="M 588 4666 
L 1791 4666 
L 1791 2888 
L 3566 2888 
L 3566 4666 
L 4769 4666 
L 4769 0 
L 3566 0 
L 3566 1978 
L 1791 1978 
L 1791 0 
L 588 0 
L 588 4666 
z
" transform="scale(0.015625)"/>
      <path id="DejaVuSans-Bold-6c" d="M 538 4863 
L 1656 4863 
L 1656 0 
L 538 0 
L 538 4863 
z
" transform="scale(0.015625)"/>
      <path id="DejaVuSans-Bold-66" d="M 2841 4863 
L 2841 4128 
L 2222 4128 
Q 1984 4128 1890 4042 
Q 1797 3956 1797 3744 
L 1797 3500 
L 2753 3500 
L 2753 2700 
L 1797 2700 
L 1797 0 
L 678 0 
L 678 2700 
L 122 2700 
L 122 3500 
L 678 3500 
L 678 3744 
Q 678 4316 997 4589 
Q 1316 4863 1984 4863 
L 2841 4863 
z
" transform="scale(0.015625)"/>
      <path id="DejaVuSans-Bold-4d" d="M 588 4666 
L 2119 4666 
L 3181 2169 
L 4250 4666 
L 5778 4666 
L 5778 0 
L 4641 0 
L 4641 3413 
L 3566 897 
L 2803 897 
L 1728 3413 
L 1728 0 
L 588 0 
L 588 4666 
z
" transform="scale(0.015625)"/>
      <path id="DejaVuSans-Bold-42" d="M 2456 2859 
Q 2741 2859 2887 2984 
Q 3034 3109 3034 3353 
Q 3034 3594 2887 3720 
Q 2741 3847 2456 3847 
L 1791 3847 
L 1791 2859 
L 2456 2859 
z
M 2497 819 
Q 2859 819 3042 972 
Q 3225 1125 3225 1434 
Q 3225 1738 3044 1889 
Q 2863 2041 2497 2041 
L 1791 2041 
L 1791 819 
L 2497 819 
z
M 3616 2497 
Q 4003 2384 4215 2081 
Q 4428 1778 4428 1338 
Q 4428 663 3972 331 
Q 3516 0 2584 0 
L 588 0 
L 588 4666 
L 2394 4666 
Q 3366 4666 3802 4372 
Q 4238 4078 4238 3431 
Q 4238 3091 4078 2852 
Q 3919 2613 3616 2497 
z
" transform="scale(0.015625)"/>
      <path id="DejaVuSans-Bold-62" d="M 2400 722 
Q 2759 722 2948 984 
Q 3138 1247 3138 1747 
Q 3138 2247 2948 2509 
Q 2759 2772 2400 2772 
Q 2041 2772 1848 2508 
Q 1656 2244 1656 1747 
Q 1656 1250 1848 986 
Q 2041 722 2400 722 
z
M 1656 2988 
Q 1888 3294 2169 3439 
Q 2450 3584 2816 3584 
Q 3463 3584 3878 3070 
Q 4294 2556 4294 1747 
Q 4294 938 3878 423 
Q 3463 -91 2816 -91 
Q 2450 -91 2169 54 
Q 1888 200 1656 506 
L 1656 0 
L 538 0 
L 538 4863 
L 1656 4863 
L 1656 2988 
z
" transform="scale(0.015625)"/>
      <path id="DejaVuSans-Bold-65" d="M 4031 1759 
L 4031 1441 
L 1416 1441 
Q 1456 1047 1700 850 
Q 1944 653 2381 653 
Q 2734 653 3104 758 
Q 3475 863 3866 1075 
L 3866 213 
Q 3469 63 3072 -14 
Q 2675 -91 2278 -91 
Q 1328 -91 801 392 
Q 275 875 275 1747 
Q 275 2603 792 3093 
Q 1309 3584 2216 3584 
Q 3041 3584 3536 3087 
Q 4031 2591 4031 1759 
z
M 2881 2131 
Q 2881 2450 2695 2645 
Q 2509 2841 2209 2841 
Q 1884 2841 1681 2658 
Q 1478 2475 1428 2131 
L 2881 2131 
z
" transform="scale(0.015625)"/>
      <path id="DejaVuSans-Bold-6d" d="M 3781 2919 
Q 3994 3244 4286 3414 
Q 4578 3584 4928 3584 
Q 5531 3584 5847 3212 
Q 6163 2841 6163 2131 
L 6163 0 
L 5038 0 
L 5038 1825 
Q 5041 1866 5042 1909 
Q 5044 1953 5044 2034 
Q 5044 2406 4934 2573 
Q 4825 2741 4581 2741 
Q 4263 2741 4089 2478 
Q 3916 2216 3909 1719 
L 3909 0 
L 2784 0 
L 2784 1825 
Q 2784 2406 2684 2573 
Q 2584 2741 2328 2741 
Q 2006 2741 1831 2477 
Q 1656 2213 1656 1722 
L 1656 0 
L 531 0 
L 531 3500 
L 1656 3500 
L 1656 2988 
Q 1863 3284 2130 3434 
Q 2397 3584 2719 3584 
Q 3081 3584 3359 3409 
Q 3638 3234 3781 2919 
z
" transform="scale(0.015625)"/>
     </defs>
     <use xlink:href="#DejaVuSans-Bold-28"/>
     <use xlink:href="#DejaVuSans-Bold-61" transform="translate(45.703125 0)"/>
     <use xlink:href="#DejaVuSans-Bold-29" transform="translate(113.183594 0)"/>
     <use xlink:href="#DejaVuSans-Bold-20" transform="translate(158.886719 0)"/>
     <use xlink:href="#DejaVuSans-Bold-48" transform="translate(193.701172 0)"/>
     <use xlink:href="#DejaVuSans-Bold-61" transform="translate(277.392578 0)"/>
     <use xlink:href="#DejaVuSans-Bold-6c" transform="translate(344.873047 0)"/>
     <use xlink:href="#DejaVuSans-Bold-66" transform="translate(379.150391 0)"/>
     <use xlink:href="#DejaVuSans-Bold-20" transform="translate(422.65625 0)"/>
     <use xlink:href="#DejaVuSans-Bold-4d" transform="translate(457.470703 0)"/>
     <use xlink:href="#DejaVuSans-Bold-42" transform="translate(556.982422 0)"/>
     <use xlink:href="#DejaVuSans-Bold-42" transform="translate(633.203125 0)"/>
     <use xlink:href="#DejaVuSans-Bold-20" transform="translate(709.423828 0)"/>
     <use xlink:href="#DejaVuSans-Bold-62" transform="translate(744.238281 0)"/>
     <use xlink:href="#DejaVuSans-Bold-65" transform="translate(815.820312 0)"/>
     <use xlink:href="#DejaVuSans-Bold-61" transform="translate(883.642578 0)"/>
     <use xlink:href="#DejaVuSans-Bold-6d" transform="translate(951.123047 0)"/>
    </g>
   </g>
   <g id="patch_3">
    <path d="M 53.164286 42.451138 
L 50.726786 35.486853 
L 53.164286 35.486853 
L 53.164286 22.951138 
L 53.164286 22.951138 
L 53.164286 35.486853 
L 55.601786 35.486853 
z
" clip-path="url(#paa9044688a)" style="fill: #d62728; stroke: #d62728; stroke-linejoin: miter"/>
   </g>
   <g id="patch_4">
    <path d="M 53.164286 103.736853 
L 46.2 113.486853 
L 60.128571 113.486853 
z
" clip-path="url(#paa9044688a)" style="fill: #1f77b4; stroke: #1f77b4; stroke-linejoin: miter"/>
   </g>
   <g id="line2d_1">
    <path d="M 46.2 115.576138 
L 60.128571 115.576138 
" clip-path="url(#paa9044688a)" style="fill: none; stroke: #1f77b4; stroke-width: 1.6; stroke-linecap: square"/>
   </g>
   <g id="patch_5">
    <path d="M 53.164286 86.093996 
L 46.2 95.843996 
L 60.128571 95.843996 
z
" clip-path="url(#paa9044688a)" style="fill: #1f77b4; stroke: #1f77b4; stroke-linejoin: miter"/>
   </g>
   <g id="line2d_2">
    <path d="M 46.2 97.933281 
L 60.128571 97.933281 
" clip-path="url(#paa9044688a)" style="fill: none; stroke: #1f77b4; stroke-width: 1.6; stroke-linecap: square"/>
   </g>
   <g id="patch_6">
    <path d="M 53.164286 68.451138 
L 46.2 78.201138 
L 60.128571 78.201138 
z
" clip-path="url(#paa9044688a)" style="fill: #1f77b4; stroke: #1f77b4; stroke-linejoin: miter"/>
   </g>
   <g id="line2d_3">
    <path d="M 46.2 80.290424 
L 60.128571 80.290424 
" clip-path="url(#paa9044688a)" style="fill: none; stroke: #1f77b4; stroke-width: 1.6; stroke-linecap: square"/>
   </g>
   <g id="patch_7">
    <path d="M 53.164286 50.808281 
L 46.2 60.558281 
L 60.128571 60.558281 
z
" clip-path="url(#paa9044688a)" style="fill: #1f77b4; stroke: #1f77b4; stroke-linejoin: miter"/>
   </g>
   <g id="line2d_4">
    <path d="M 46.2 62.647567 
L 60.128571 62.647567 
" clip-path="url(#paa9044688a)" style="fill: none; stroke: #1f77b4; stroke-width: 1.6; stroke-linecap: square"/>
   </g>
   <g id="patch_8">
    <path d="M 262.092857 112.093996 
L 255.128571 121.843996 
L 269.057143 121.843996 
z
" clip-path="url(#paa9044688a)" style="fill: #1f77b4; stroke: #1f77b4; stroke-linejoin: miter"/>
   </g>
   <g id="line2d_5">
    <path d="M 255.128571 123.933281 
L 269.057143 123.933281 
" clip-path="url(#paa9044688a)" style="fill: none; stroke: #1f77b4; stroke-width: 1.6; stroke-linecap: square"/>
   </g>
  </g>
  <g id="axes_2">
   <g id="patch_9">
    <path d="M 356.464286 112.093996 
L 565.392857 112.093996 
L 565.392857 42.451138 
L 356.464286 42.451138 
z
" clip-path="url(#p1757e7fcde)" style="fill: #e9edf2; stroke: #2b2b2b; stroke-width: 1.6; stroke-linejoin: miter"/>
   </g>
   <g id="patch_10">
    <path d="M 343.928571 112.093996 
L 356.464286 112.093996 
L 356.464286 42.451138 
L 343.928571 42.451138 
z
" clip-path="url(#p1757e7fcde)" style="fill: url(#hde6e3599d9); stroke: #1f77b4; stroke-width: 1.4; stroke-linejoin: miter"/>
   </g>
   <g id="text_4">
    <!-- P -->
    <g style="fill: #d62728" transform="translate(568.178571 65.572567) scale(0.1 -0.1)">
     <use xlink:href="#DejaVuSans-Bold-50"/>
    </g>
   </g>
   <g id="text_5">
    <!-- (b) Cantilever (mid load) -->
    <g transform="translate(380.326641 15.558281) scale(0.11 -0.11)">
     <defs>
      <path id="DejaVuSans-Bold-43" d="M 4288 256 
Q 3956 84 3597 -3 
Q 3238 -91 2847 -91 
Q 1681 -91 1000 561 
Q 319 1213 319 2328 
Q 319 3447 1000 4098 
Q 1681 4750 2847 4750 
Q 3238 4750 3597 4662 
Q 3956 4575 4288 4403 
L 4288 3438 
Q 3953 3666 3628 3772 
Q 3303 3878 2944 3878 
Q 2300 3878 1931 3465 
Q 1563 3053 1563 2328 
Q 1563 1606 1931 1193 
Q 2300 781 2944 781 
Q 3303 781 3628 887 
Q 3953 994 4288 1222 
L 4288 256 
z
" transform="scale(0.015625)"/>
      <path id="DejaVuSans-Bold-6e" d="M 4056 2131 
L 4056 0 
L 2931 0 
L 2931 347 
L 2931 1631 
Q 2931 2084 2911 2256 
Q 2891 2428 2841 2509 
Q 2775 2619 2662 2680 
Q 2550 2741 2406 2741 
Q 2056 2741 1856 2470 
Q 1656 2200 1656 1722 
L 1656 0 
L 538 0 
L 538 3500 
L 1656 3500 
L 1656 2988 
Q 1909 3294 2193 3439 
Q 2478 3584 2822 3584 
Q 3428 3584 3742 3212 
Q 4056 2841 4056 2131 
z
" transform="scale(0.015625)"/>
      <path id="DejaVuSans-Bold-74" d="M 1759 4494 
L 1759 3500 
L 2913 3500 
L 2913 2700 
L 1759 2700 
L 1759 1216 
Q 1759 972 1856 886 
Q 1953 800 2241 800 
L 2816 800 
L 2816 0 
L 1856 0 
Q 1194 0 917 276 
Q 641 553 641 1216 
L 641 2700 
L 84 2700 
L 84 3500 
L 641 3500 
L 641 4494 
L 1759 4494 
z
" transform="scale(0.015625)"/>
      <path id="DejaVuSans-Bold-69" d="M 538 3500 
L 1656 3500 
L 1656 0 
L 538 0 
L 538 3500 
z
M 538 4863 
L 1656 4863 
L 1656 3950 
L 538 3950 
L 538 4863 
z
" transform="scale(0.015625)"/>
      <path id="DejaVuSans-Bold-76" d="M 97 3500 
L 1216 3500 
L 2088 1081 
L 2956 3500 
L 4078 3500 
L 2700 0 
L 1472 0 
L 97 3500 
z
" transform="scale(0.015625)"/>
      <path id="DejaVuSans-Bold-72" d="M 3138 2547 
Q 2991 2616 2845 2648 
Q 2700 2681 2553 2681 
Q 2122 2681 1889 2404 
Q 1656 2128 1656 1613 
L 1656 0 
L 538 0 
L 538 3500 
L 1656 3500 
L 1656 2925 
Q 1872 3269 2151 3426 
Q 2431 3584 2822 3584 
Q 2878 3584 2943 3579 
Q 3009 3575 3134 3559 
L 3138 2547 
z
" transform="scale(0.015625)"/>
      <path id="DejaVuSans-Bold-64" d="M 2919 2988 
L 2919 4863 
L 4044 4863 
L 4044 0 
L 2919 0 
L 2919 506 
Q 2688 197 2409 53 
Q 2131 -91 1766 -91 
Q 1119 -91 703 423 
Q 288 938 288 1747 
Q 288 2556 703 3070 
Q 1119 3584 1766 3584 
Q 2128 3584 2408 3439 
Q 2688 3294 2919 2988 
z
M 2181 722 
Q 2541 722 2730 984 
Q 2919 1247 2919 1747 
Q 2919 2247 2730 2509 
Q 2541 2772 2181 2772 
Q 1825 2772 1636 2509 
Q 1447 2247 1447 1747 
Q 1447 1247 1636 984 
Q 1825 722 2181 722 
z
" transform="scale(0.015625)"/>
      <path id="DejaVuSans-Bold-6f" d="M 2203 2784 
Q 1831 2784 1636 2517 
Q 1441 2250 1441 1747 
Q 1441 1244 1636 976 
Q 1831 709 2203 709 
Q 2569 709 2762 976 
Q 2956 1244 2956 1747 
Q 2956 2250 2762 2517 
Q 2569 2784 2203 2784 
z
M 2203 3584 
Q 3106 3584 3614 3096 
Q 4122 2609 4122 1747 
Q 4122 884 3614 396 
Q 3106 -91 2203 -91 
Q 1297 -91 786 396 
Q 275 884 275 1747 
Q 275 2609 786 3096 
Q 1297 3584 2203 3584 
z
" transform="scale(0.015625)"/>
     </defs>
     <use xlink:href="#DejaVuSans-Bold-28"/>
     <use xlink:href="#DejaVuSans-Bold-62" transform="translate(45.703125 0)"/>
     <use xlink:href="#DejaVuSans-Bold-29" transform="translate(117.285156 0)"/>
     <use xlink:href="#DejaVuSans-Bold-20" transform="translate(162.988281 0)"/>
     <use xlink:href="#DejaVuSans-Bold-43" transform="translate(197.802734 0)"/>
     <use xlink:href="#DejaVuSans-Bold-61" transform="translate(271.191406 0)"/>
     <use xlink:href="#DejaVuSans-Bold-6e" transform="translate(338.671875 0)"/>
     <use xlink:href="#DejaVuSans-Bold-74" transform="translate(409.863281 0)"/>
     <use xlink:href="#DejaVuSans-Bold-69" transform="translate(457.666016 0)"/>
     <use xlink:href="#DejaVuSans-Bold-6c" transform="translate(491.943359 0)"/>
     <use xlink:href="#DejaVuSans-Bold-65" transform="translate(526.220703 0)"/>
     <use xlink:href="#DejaVuSans-Bold-76" transform="translate(594.042969 0)"/>
     <use xlink:href="#DejaVuSans-Bold-65" transform="translate(659.228516 0)"/>
     <use xlink:href="#DejaVuSans-Bold-72" transform="translate(727.050781 0)"/>
     <use xlink:href="#DejaVuSans-Bold-20" transform="translate(776.367188 0)"/>
     <use xlink:href="#DejaVuSans-Bold-28" transform="translate(811.181641 0)"/>
     <use xlink:href="#DejaVuSans-Bold-6d" transform="translate(856.884766 0)"/>
     <use xlink:href="#DejaVuSans-Bold-69" transform="translate(961.083984 0)"/>
     <use xlink:href="#DejaVuSans-Bold-64" transform="translate(995.361328 0)"/>
     <use xlink:href="#DejaVuSans-Bold-20" transform="translate(1066.943359 0)"/>
     <use xlink:href="#DejaVuSans-Bold-6c" transform="translate(1101.757812 0)"/>
     <use xlink:href="#DejaVuSans-Bold-6f" transform="translate(1136.035156 0)"/>
     <use xlink:href="#DejaVuSans-Bold-61" transform="translate(1204.736328 0)"/>
     <use xlink:href="#DejaVuSans-Bold-64" transform="translate(1272.216797 0)"/>
     <use xlink:href="#DejaVuSans-Bold-29" transform="translate(1343.798828 0)"/>
    </g>
   </g>
   <g id="patch_11">
    <path d="M 565.392857 77.272567 
L 562.955357 70.308281 
L 565.392857 70.308281 
L 565.392857 57.772567 
L 565.392857 57.772567 
L 565.392857 70.308281 
L 567.830357 70.308281 
z
" clip-path="url(#p1757e7fcde)" style="fill: #d62728; stroke: #d62728; stroke-linejoin: miter"/>
   </g>
  </g>
  <g id="axes_3">
   <g id="patch_12">
    <path d="M 659.764286 112.093996 
L 868.692857 112.093996 
L 868.692857 42.451138 
L 659.764286 42.451138 
z
" clip-path="url(#pf972780898)" style="fill: #e9edf2; stroke: #2b2b2b; stroke-width: 1.6; stroke-linejoin: miter"/>
   </g>
   <g id="text_6">
    <!-- P -->
    <g style="fill: #d62728" transform="translate(767.014286 100.393996) scale(0.1 -0.1)">
     <use xlink:href="#DejaVuSans-Bold-50"/>
    </g>
   </g>
   <g id="text_7">
    <!-- pin -->
    <g style="fill: #1f77b4" transform="translate(653.578661 126.022567) scale(0.08 -0.08)">
     <defs>
      <path id="DejaVuSans-70" d="M 1159 525 
L 1159 -1331 
L 581 -1331 
L 581 3500 
L 1159 3500 
L 1159 2969 
Q 1341 3281 1617 3432 
Q 1894 3584 2278 3584 
Q 2916 3584 3314 3078 
Q 3713 2572 3713 1747 
Q 3713 922 3314 415 
Q 2916 -91 2278 -91 
Q 1894 -91 1617 61 
Q 1341 213 1159 525 
z
M 3116 1747 
Q 3116 2381 2855 2742 
Q 2594 3103 2138 3103 
Q 1681 3103 1420 2742 
Q 1159 2381 1159 1747 
Q 1159 1113 1420 752 
Q 1681 391 2138 391 
Q 2594 391 2855 752 
Q 3116 1113 3116 1747 
z
" transform="scale(0.015625)"/>
      <path id="DejaVuSans-69" d="M 603 3500 
L 1178 3500 
L 1178 0 
L 603 0 
L 603 3500 
z
M 603 4863 
L 1178 4863 
L 1178 4134 
L 603 4134 
L 603 4863 
z
" transform="scale(0.015625)"/>
      <path id="DejaVuSans-6e" d="M 3513 2113 
L 3513 0 
L 2938 0 
L 2938 2094 
Q 2938 2591 2744 2837 
Q 2550 3084 2163 3084 
Q 1697 3084 1428 2787 
Q 1159 2491 1159 1978 
L 1159 0 
L 581 0 
L 581 3500 
L 1159 3500 
L 1159 2956 
Q 1366 3272 1645 3428 
Q 1925 3584 2291 3584 
Q 2894 3584 3203 3211 
Q 3513 2838 3513 2113 
z
" transform="scale(0.015625)"/>
     </defs>
     <use xlink:href="#DejaVuSans-70"/>
     <use xlink:href="#DejaVuSans-69" transform="translate(63.476562 0)"/>
     <use xlink:href="#DejaVuSans-6e" transform="translate(91.259766 0)"/>
    </g>
   </g>
   <g id="text_8">
    <!-- roller -->
    <g style="fill: #1f77b4" transform="translate(858.362857 126.022567) scale(0.08 -0.08)">
     <defs>
      <path id="DejaVuSans-6f" d="M 1959 3097 
Q 1497 3097 1228 2736 
Q 959 2375 959 1747 
Q 959 1119 1226 758 
Q 1494 397 1959 397 
Q 2419 397 2687 759 
Q 2956 1122 2956 1747 
Q 2956 2369 2687 2733 
Q 2419 3097 1959 3097 
z
M 1959 3584 
Q 2709 3584 3137 3096 
Q 3566 2609 3566 1747 
Q 3566 888 3137 398 
Q 2709 -91 1959 -91 
Q 1206 -91 779 398 
Q 353 888 353 1747 
Q 353 2609 779 3096 
Q 1206 3584 1959 3584 
z
" transform="scale(0.015625)"/>
      <path id="DejaVuSans-6c" d="M 603 4863 
L 1178 4863 
L 1178 0 
L 603 0 
L 603 4863 
z
" transform="scale(0.015625)"/>
     </defs>
     <use xlink:href="#DejaVuSans-72"/>
     <use xlink:href="#DejaVuSans-6f" transform="translate(38.863281 0)"/>
     <use xlink:href="#DejaVuSans-6c" transform="translate(100.044922 0)"/>
     <use xlink:href="#DejaVuSans-6c" transform="translate(127.828125 0)"/>
     <use xlink:href="#DejaVuSans-65" transform="translate(155.611328 0)"/>
     <use xlink:href="#DejaVuSans-72" transform="translate(217.134766 0)"/>
    </g>
   </g>
   <g id="text_9">
    <!-- (c) Bridge -->
    <g transform="translate(729.453672 15.558281) scale(0.11 -0.11)">
     <defs>
      <path id="DejaVuSans-Bold-63" d="M 3366 3391 
L 3366 2478 
Q 3138 2634 2908 2709 
Q 2678 2784 2431 2784 
Q 1963 2784 1702 2511 
Q 1441 2238 1441 1747 
Q 1441 1256 1702 982 
Q 1963 709 2431 709 
Q 2694 709 2930 787 
Q 3166 866 3366 1019 
L 3366 103 
Q 3103 6 2833 -42 
Q 2563 -91 2291 -91 
Q 1344 -91 809 395 
Q 275 881 275 1747 
Q 275 2613 809 3098 
Q 1344 3584 2291 3584 
Q 2566 3584 2833 3536 
Q 3100 3488 3366 3391 
z
" transform="scale(0.015625)"/>
      <path id="DejaVuSans-Bold-67" d="M 2919 594 
Q 2688 288 2409 144 
Q 2131 0 1766 0 
Q 1125 0 706 504 
Q 288 1009 288 1791 
Q 288 2575 706 3076 
Q 1125 3578 1766 3578 
Q 2131 3578 2409 3434 
Q 2688 3291 2919 2981 
L 2919 3500 
L 4044 3500 
L 4044 353 
Q 4044 -491 3511 -936 
Q 2978 -1381 1966 -1381 
Q 1638 -1381 1331 -1331 
Q 1025 -1281 716 -1178 
L 716 -306 
Q 1009 -475 1290 -558 
Q 1572 -641 1856 -641 
Q 2406 -641 2662 -400 
Q 2919 -159 2919 353 
L 2919 594 
z
M 2181 2772 
Q 1834 2772 1640 2515 
Q 1447 2259 1447 1791 
Q 1447 1309 1634 1061 
Q 1822 813 2181 813 
Q 2531 813 2725 1069 
Q 2919 1325 2919 1791 
Q 2919 2259 2725 2515 
Q 2531 2772 2181 2772 
z
" transform="scale(0.015625)"/>
     </defs>
     <use xlink:href="#DejaVuSans-Bold-28"/>
     <use xlink:href="#DejaVuSans-Bold-63" transform="translate(45.703125 0)"/>
     <use xlink:href="#DejaVuSans-Bold-29" transform="translate(104.980469 0)"/>
     <use xlink:href="#DejaVuSans-Bold-20" transform="translate(150.683594 0)"/>
     <use xlink:href="#DejaVuSans-Bold-42" transform="translate(185.498047 0)"/>
     <use xlink:href="#DejaVuSans-Bold-72" transform="translate(261.71875 0)"/>
     <use xlink:href="#DejaVuSans-Bold-69" transform="translate(311.035156 0)"/>
     <use xlink:href="#DejaVuSans-Bold-64" transform="translate(345.3125 0)"/>
     <use xlink:href="#DejaVuSans-Bold-67" transform="translate(416.894531 0)"/>
     <use xlink:href="#DejaVuSans-Bold-65" transform="translate(488.476562 0)"/>
    </g>
   </g>
   <g id="patch_13">
    <path d="M 659.764286 112.093996 
L 652.8 121.843996 
L 666.728571 121.843996 
z
" clip-path="url(#pf972780898)" style="fill: #1f77b4; stroke: #1f77b4; stroke-linejoin: miter"/>
   </g>
   <g id="patch_14">
    <path d="M 868.692857 112.093996 
L 861.728571 121.843996 
L 875.657143 121.843996 
z
" clip-path="url(#pf972780898)" style="fill: #1f77b4; stroke: #1f77b4; stroke-linejoin: miter"/>
   </g>
   <g id="line2d_6">
    <path d="M 861.728571 123.933281 
L 875.657143 123.933281 
" clip-path="url(#pf972780898)" style="fill: none; stroke: #1f77b4; stroke-width: 1.6; stroke-linecap: square"/>
   </g>
   <g id="patch_15">
    <path d="M 764.228571 112.093996 
L 761.791071 105.12971 
L 764.228571 105.12971 
L 764.228571 92.593996 
L 764.228571 92.593996 
L 764.228571 105.12971 
L 766.666071 105.12971 
z
" clip-path="url(#pf972780898)" style="fill: #d62728; stroke: #d62728; stroke-linejoin: miter"/>
   </g>
  </g>
  <g id="axes_4">
   <g id="patch_16">
    <path d="M 963.064286 112.093996 
L 1171.992857 112.093996 
L 1171.992857 42.451138 
L 963.064286 42.451138 
z
" clip-path="url(#p9f01c7ebd5)" style="fill: #e9edf2; stroke: #2b2b2b; stroke-width: 1.6; stroke-linejoin: miter"/>
   </g>
   <g id="patch_17">
    <path d="M 950.528571 112.093996 
L 963.064286 112.093996 
L 963.064286 42.451138 
L 950.528571 42.451138 
z
" clip-path="url(#p9f01c7ebd5)" style="fill: url(#hde6e3599d9); stroke: #1f77b4; stroke-width: 1.4; stroke-linejoin: miter"/>
   </g>
   <g id="text_10">
    <!-- P -->
    <g style="fill: #d62728" transform="translate(1174.778571 100.393996) scale(0.1 -0.1)">
     <use xlink:href="#DejaVuSans-Bold-50"/>
    </g>
   </g>
   <g id="text_11">
    <!-- (d) Tip-loaded cantilever -->
    <g transform="translate(986.673984 15.558281) scale(0.11 -0.11)">
     <defs>
      <path id="DejaVuSans-Bold-54" d="M 31 4666 
L 4331 4666 
L 4331 3756 
L 2784 3756 
L 2784 0 
L 1581 0 
L 1581 3756 
L 31 3756 
L 31 4666 
z
" transform="scale(0.015625)"/>
      <path id="DejaVuSans-Bold-70" d="M 1656 506 
L 1656 -1331 
L 538 -1331 
L 538 3500 
L 1656 3500 
L 1656 2988 
Q 1888 3294 2169 3439 
Q 2450 3584 2816 3584 
Q 3463 3584 3878 3070 
Q 4294 2556 4294 1747 
Q 4294 938 3878 423 
Q 3463 -91 2816 -91 
Q 2450 -91 2169 54 
Q 1888 200 1656 506 
z
M 2400 2772 
Q 2041 2772 1848 2508 
Q 1656 2244 1656 1747 
Q 1656 1250 1848 986 
Q 2041 722 2400 722 
Q 2759 722 2948 984 
Q 3138 1247 3138 1747 
Q 3138 2247 2948 2509 
Q 2759 2772 2400 2772 
z
" transform="scale(0.015625)"/>
      <path id="DejaVuSans-Bold-2d" d="M 347 2297 
L 2309 2297 
L 2309 1388 
L 347 1388 
L 347 2297 
z
" transform="scale(0.015625)"/>
     </defs>
     <use xlink:href="#DejaVuSans-Bold-28"/>
     <use xlink:href="#DejaVuSans-Bold-64" transform="translate(45.703125 0)"/>
     <use xlink:href="#DejaVuSans-Bold-29" transform="translate(117.285156 0)"/>
     <use xlink:href="#DejaVuSans-Bold-20" transform="translate(162.988281 0)"/>
     <use xlink:href="#DejaVuSans-Bold-54" transform="translate(197.802734 0)"/>
     <use xlink:href="#DejaVuSans-Bold-69" transform="translate(266.015625 0)"/>
     <use xlink:href="#DejaVuSans-Bold-70" transform="translate(300.292969 0)"/>
     <use xlink:href="#DejaVuSans-Bold-2d" transform="translate(371.875 0)"/>
     <use xlink:href="#DejaVuSans-Bold-6c" transform="translate(413.378906 0)"/>
     <use xlink:href="#DejaVuSans-Bold-6f" transform="translate(447.65625 0)"/>
     <use xlink:href="#DejaVuSans-Bold-61" transform="translate(516.357422 0)"/>
     <use xlink:href="#DejaVuSans-Bold-64" transform="translate(583.837891 0)"/>
     <use xlink:href="#DejaVuSans-Bold-65" transform="translate(655.419922 0)"/>
     <use xlink:href="#DejaVuSans-Bold-64" transform="translate(723.242188 0)"/>
     <use xlink:href="#DejaVuSans-Bold-20" transform="translate(794.824219 0)"/>
     <use xlink:href="#DejaVuSans-Bold-63" transform="translate(829.638672 0)"/>
     <use xlink:href="#DejaVuSans-Bold-61" transform="translate(888.916016 0)"/>
     <use xlink:href="#DejaVuSans-Bold-6e" transform="translate(956.396484 0)"/>
     <use xlink:href="#DejaVuSans-Bold-74" transform="translate(1027.587891 0)"/>
     <use xlink:href="#DejaVuSans-Bold-69" transform="translate(1075.390625 0)"/>
     <use xlink:href="#DejaVuSans-Bold-6c" transform="translate(1109.667969 0)"/>
     <use xlink:href="#DejaVuSans-Bold-65" transform="translate(1143.945312 0)"/>
     <use xlink:href="#DejaVuSans-Bold-76" transform="translate(1211.767578 0)"/>
     <use xlink:href="#DejaVuSans-Bold-65" transform="translate(1276.953125 0)"/>
     <use xlink:href="#DejaVuSans-Bold-72" transform="translate(1344.775391 0)"/>
    </g>
   </g>
   <g id="patch_18">
    <path d="M 1171.992857 112.093996 
L 1169.555357 105.12971 
L 1171.992857 105.12971 
L 1171.992857 92.593996 
L 1171.992857 92.593996 
L 1171.992857 105.12971 
L 1174.430357 105.12971 
z
" clip-path="url(#p9f01c7ebd5)" style="fill: #d62728; stroke: #d62728; stroke-linejoin: miter"/>
   </g>
  </g>
  <g id="legend_1">
   <g id="patch_19">
    <path d="M 375.029297 232.108848 
L 393.029297 232.108848 
L 393.029297 225.808848 
L 375.029297 225.808848 
z
" style="fill: #e9edf2; stroke: #2b2b2b; stroke-linejoin: miter"/>
   </g>
   <g id="text_12">
    <!-- Design domain -->
    <g transform="translate(400.229297 232.108848) scale(0.09 -0.09)">
     <defs>
      <path id="DejaVuSans-44" d="M 1259 4147 
L 1259 519 
L 2022 519 
Q 2988 519 3436 956 
Q 3884 1394 3884 2338 
Q 3884 3275 3436 3711 
Q 2988 4147 2022 4147 
L 1259 4147 
z
M 628 4666 
L 1925 4666 
Q 3281 4666 3915 4102 
Q 4550 3538 4550 2338 
Q 4550 1131 3912 565 
Q 3275 0 1925 0 
L 628 0 
L 628 4666 
z
" transform="scale(0.015625)"/>
      <path id="DejaVuSans-67" d="M 2906 1791 
Q 2906 2416 2648 2759 
Q 2391 3103 1925 3103 
Q 1463 3103 1205 2759 
Q 947 2416 947 1791 
Q 947 1169 1205 825 
Q 1463 481 1925 481 
Q 2391 481 2648 825 
Q 2906 1169 2906 1791 
z
M 3481 434 
Q 3481 -459 3084 -895 
Q 2688 -1331 1869 -1331 
Q 1566 -1331 1297 -1286 
Q 1028 -1241 775 -1147 
L 775 -588 
Q 1028 -725 1275 -790 
Q 1522 -856 1778 -856 
Q 2344 -856 2625 -561 
Q 2906 -266 2906 331 
L 2906 616 
Q 2728 306 2450 153 
Q 2172 0 1784 0 
Q 1141 0 747 490 
Q 353 981 353 1791 
Q 353 2603 747 3093 
Q 1141 3584 1784 3584 
Q 2172 3584 2450 3431 
Q 2728 3278 2906 2969 
L 2906 3500 
L 3481 3500 
L 3481 434 
z
" transform="scale(0.015625)"/>
      <path id="DejaVuSans-20" transform="scale(0.015625)"/>
      <path id="DejaVuSans-64" d="M 2906 2969 
L 2906 4863 
L 3481 4863 
L 3481 0 
L 2906 0 
L 2906 525 
Q 2725 213 2448 61 
Q 2172 -91 1784 -91 
Q 1150 -91 751 415 
Q 353 922 353 1747 
Q 353 2572 751 3078 
Q 1150 3584 1784 3584 
Q 2172 3584 2448 3432 
Q 2725 3281 2906 2969 
z
M 947 1747 
Q 947 1113 1208 752 
Q 1469 391 1925 391 
Q 2381 391 2643 752 
Q 2906 1113 2906 1747 
Q 2906 2381 2643 2742 
Q 2381 3103 1925 3103 
Q 1469 3103 1208 2742 
Q 947 2381 947 1747 
z
" transform="scale(0.015625)"/>
      <path id="DejaVuSans-61" d="M 2194 1759 
Q 1497 1759 1228 1600 
Q 959 1441 959 1056 
Q 959 750 1161 570 
Q 1363 391 1709 391 
Q 2188 391 2477 730 
Q 2766 1069 2766 1631 
L 2766 1759 
L 2194 1759 
z
M 3341 1997 
L 3341 0 
L 2766 0 
L 2766 531 
Q 2569 213 2275 61 
Q 1981 -91 1556 -91 
Q 1019 -91 701 211 
Q 384 513 384 1019 
Q 384 1609 779 1909 
Q 1175 2209 1959 2209 
L 2766 2209 
L 2766 2266 
Q 2766 2663 2505 2880 
Q 2244 3097 1772 3097 
Q 1472 3097 1187 3025 
Q 903 2953 641 2809 
L 641 3341 
Q 956 3463 1253 3523 
Q 1550 3584 1831 3584 
Q 2591 3584 2966 3190 
Q 3341 2797 3341 1997 
z
" transform="scale(0.015625)"/>
     </defs>
     <use xlink:href="#DejaVuSans-44"/>
     <use xlink:href="#DejaVuSans-65" transform="translate(77.001953 0)"/>
     <use xlink:href="#DejaVuSans-73" transform="translate(138.525391 0)"/>
     <use xlink:href="#DejaVuSans-69" transform="translate(190.625 0)"/>
     <use xlink:href="#DejaVuSans-67" transform="translate(218.408203 0)"/>
     <use xlink:href="#DejaVuSans-6e" transform="translate(281.884766 0)"/>
     <use xlink:href="#DejaVuSans-20" transform="translate(345.263672 0)"/>
     <use xlink:href="#DejaVuSans-64" transform="translate(377.050781 0)"/>
     <use xlink:href="#DejaVuSans-6f" transform="translate(440.527344 0)"/>
     <use xlink:href="#DejaVuSans-6d" transform="translate(501.708984 0)"/>
     <use xlink:href="#DejaVuSans-61" transform="translate(599.121094 0)"/>
     <use xlink:href="#DejaVuSans-69" transform="translate(660.400391 0)"/>
     <use xlink:href="#DejaVuSans-6e" transform="translate(688.183594 0)"/>
    </g>
   </g>
   <g id="line2d_7">
    <path d="M 485.869922 228.958848 
L 494.869922 228.958848 
L 503.869922 228.958848 
" style="fill: none; stroke: #d62728; stroke-width: 2; stroke-linecap: square"/>
    <defs>
     <path id="m8004325d6f" d="M -0 4 
L 4 -4 
L -4 -4 
z
" style="stroke: #d62728; stroke-linejoin: miter"/>
    </defs>
    <g>
     <use xlink:href="#m8004325d6f" x="494.869922" y="228.958848" style="fill: #d62728; stroke: #d62728; stroke-linejoin: miter"/>
    </g>
   </g>
   <g id="text_13">
    <!-- Applied load P -->
    <g transform="translate(511.069922 232.108848) scale(0.09 -0.09)">
     <defs>
      <path id="DejaVuSans-41" d="M 2188 4044 
L 1331 1722 
L 3047 1722 
L 2188 4044 
z
M 1831 4666 
L 2547 4666 
L 4325 0 
L 3669 0 
L 3244 1197 
L 1141 1197 
L 716 0 
L 50 0 
L 1831 4666 
z
" transform="scale(0.015625)"/>
      <path id="DejaVuSans-50" d="M 1259 4147 
L 1259 2394 
L 2053 2394 
Q 2494 2394 2734 2622 
Q 2975 2850 2975 3272 
Q 2975 3691 2734 3919 
Q 2494 4147 2053 4147 
L 1259 4147 
z
M 628 4666 
L 2053 4666 
Q 2838 4666 3239 4311 
Q 3641 3956 3641 3272 
Q 3641 2581 3239 2228 
Q 2838 1875 2053 1875 
L 1259 1875 
L 1259 0 
L 628 0 
L 628 4666 
z
" transform="scale(0.015625)"/>
     </defs>
     <use xlink:href="#DejaVuSans-41"/>
     <use xlink:href="#DejaVuSans-70" transform="translate(68.408203 0)"/>
     <use xlink:href="#DejaVuSans-70" transform="translate(131.884766 0)"/>
     <use xlink:href="#DejaVuSans-6c" transform="translate(195.361328 0)"/>
     <use xlink:href="#DejaVuSans-69" transform="translate(223.144531 0)"/>
     <use xlink:href="#DejaVuSans-65" transform="translate(250.927734 0)"/>
     <use xlink:href="#DejaVuSans-64" transform="translate(312.451172 0)"/>
     <use xlink:href="#DejaVuSans-20" transform="translate(375.927734 0)"/>
     <use xlink:href="#DejaVuSans-6c" transform="translate(407.714844 0)"/>
     <use xlink:href="#DejaVuSans-6f" transform="translate(435.498047 0)"/>
     <use xlink:href="#DejaVuSans-61" transform="translate(496.679688 0)"/>
     <use xlink:href="#DejaVuSans-64" transform="translate(557.958984 0)"/>
     <use xlink:href="#DejaVuSans-20" transform="translate(621.435547 0)"/>
     <use xlink:href="#DejaVuSans-50" transform="translate(653.222656 0)"/>
    </g>
   </g>
   <g id="patch_20">
    <path d="M 593.289141 232.108848 
L 611.289141 232.108848 
L 611.289141 225.808848 
L 593.289141 225.808848 
z
" style="fill: url(#hde6e3599d9); stroke: #1f77b4; stroke-linejoin: miter"/>
   </g>
   <g id="text_14">
    <!-- Clamped edge (fixed) -->
    <g transform="translate(618.489141 232.108848) scale(0.09 -0.09)">
     <defs>
      <path id="DejaVuSans-43" d="M 4122 4306 
L 4122 3641 
Q 3803 3938 3442 4084 
Q 3081 4231 2675 4231 
Q 1875 4231 1450 3742 
Q 1025 3253 1025 2328 
Q 1025 1406 1450 917 
Q 1875 428 2675 428 
Q 3081 428 3442 575 
Q 3803 722 4122 1019 
L 4122 359 
Q 3791 134 3420 21 
Q 3050 -91 2638 -91 
Q 1578 -91 968 557 
Q 359 1206 359 2328 
Q 359 3453 968 4101 
Q 1578 4750 2638 4750 
Q 3056 4750 3426 4639 
Q 3797 4528 4122 4306 
z
" transform="scale(0.015625)"/>
      <path id="DejaVuSans-28" d="M 1984 4856 
Q 1566 4138 1362 3434 
Q 1159 2731 1159 2009 
Q 1159 1288 1364 580 
Q 1569 -128 1984 -844 
L 1484 -844 
Q 1016 -109 783 600 
Q 550 1309 550 2009 
Q 550 2706 781 3412 
Q 1013 4119 1484 4856 
L 1984 4856 
z
" transform="scale(0.015625)"/>
      <path id="DejaVuSans-66" d="M 2375 4863 
L 2375 4384 
L 1825 4384 
Q 1516 4384 1395 4259 
Q 1275 4134 1275 3809 
L 1275 3500 
L 2222 3500 
L 2222 3053 
L 1275 3053 
L 1275 0 
L 697 0 
L 697 3053 
L 147 3053 
L 147 3500 
L 697 3500 
L 697 3744 
Q 697 4328 969 4595 
Q 1241 4863 1831 4863 
L 2375 4863 
z
" transform="scale(0.015625)"/>
      <path id="DejaVuSans-78" d="M 3513 3500 
L 2247 1797 
L 3578 0 
L 2900 0 
L 1881 1375 
L 863 0 
L 184 0 
L 1544 1831 
L 300 3500 
L 978 3500 
L 1906 2253 
L 2834 3500 
L 3513 3500 
z
" transform="scale(0.015625)"/>
      <path id="DejaVuSans-29" d="M 513 4856 
L 1013 4856 
Q 1481 4119 1714 3412 
Q 1947 2706 1947 2009 
Q 1947 1309 1714 600 
Q 1481 -109 1013 -844 
L 513 -844 
Q 928 -128 1133 580 
Q 1338 1288 1338 2009 
Q 1338 2731 1133 3434 
Q 928 4138 513 4856 
z
" transform="scale(0.015625)"/>
     </defs>
     <use xlink:href="#DejaVuSans-43"/>
     <use xlink:href="#DejaVuSans-6c" transform="translate(69.824219 0)"/>
     <use xlink:href="#DejaVuSans-61" transform="translate(97.607422 0)"/>
     <use xlink:href="#DejaVuSans-6d" transform="translate(158.886719 0)"/>
     <use xlink:href="#DejaVuSans-70" transform="translate(256.298828 0)"/>
     <use xlink:href="#DejaVuSans-65" transform="translate(319.775391 0)"/>
     <use xlink:href="#DejaVuSans-64" transform="translate(381.298828 0)"/>
     <use xlink:href="#DejaVuSans-20" transform="translate(444.775391 0)"/>
     <use xlink:href="#DejaVuSans-65" transform="translate(476.5625 0)"/>
     <use xlink:href="#DejaVuSans-64" transform="translate(538.085938 0)"/>
     <use xlink:href="#DejaVuSans-67" transform="translate(601.5625 0)"/>
     <use xlink:href="#DejaVuSans-65" transform="translate(665.039062 0)"/>
     <use xlink:href="#DejaVuSans-20" transform="translate(726.5625 0)"/>
     <use xlink:href="#DejaVuSans-28" transform="translate(758.349609 0)"/>
     <use xlink:href="#DejaVuSans-66" transform="translate(797.363281 0)"/>
     <use xlink:href="#DejaVuSans-69" transform="translate(832.568359 0)"/>
     <use xlink:href="#DejaVuSans-78" transform="translate(860.351562 0)"/>
     <use xlink:href="#DejaVuSans-65" transform="translate(916.40625 0)"/>
     <use xlink:href="#DejaVuSans-64" transform="translate(977.929688 0)"/>
     <use xlink:href="#DejaVuSans-29" transform="translate(1041.40625 0)"/>
    </g>
   </g>
   <g id="line2d_8">
    <path d="M 733.732734 228.958848 
L 742.732734 228.958848 
L 751.732734 228.958848 
" style="fill: none; stroke: #ffffff; stroke-width: 1.5; stroke-linecap: square"/>
    <defs>
     <path id="m0ab85604e7" d="M 0 -5.5 
L -5.5 5.5 
L 5.5 5.5 
z
" style="stroke: #ffffff; stroke-linejoin: miter"/>
    </defs>
    <g>
     <use xlink:href="#m0ab85604e7" x="742.732734" y="228.958848" style="fill: #1f77b4; stroke: #ffffff; stroke-linejoin: miter"/>
    </g>
   </g>
   <g id="text_15">
    <!-- Pin / roller support -->
    <g transform="translate(758.932734 232.108848) scale(0.09 -0.09)">
     <defs>
      <path id="DejaVuSans-2f" d="M 1625 4666 
L 2156 4666 
L 531 -594 
L 0 -594 
L 1625 4666 
z
" transform="scale(0.015625)"/>
      <path id="DejaVuSans-75" d="M 544 1381 
L 544 3500 
L 1119 3500 
L 1119 1403 
Q 1119 906 1312 657 
Q 1506 409 1894 409 
Q 2359 409 2629 706 
Q 2900 1003 2900 1516 
L 2900 3500 
L 3475 3500 
L 3475 0 
L 2900 0 
L 2900 538 
Q 2691 219 2414 64 
Q 2138 -91 1772 -91 
Q 1169 -91 856 284 
Q 544 659 544 1381 
z
M 1991 3584 
L 1991 3584 
z
" transform="scale(0.015625)"/>
     </defs>
     <use xlink:href="#DejaVuSans-50"/>
     <use xlink:href="#DejaVuSans-69" transform="translate(58.052734 0)"/>
     <use xlink:href="#DejaVuSans-6e" transform="translate(85.835938 0)"/>
     <use xlink:href="#DejaVuSans-20" transform="translate(149.214844 0)"/>
     <use xlink:href="#DejaVuSans-2f" transform="translate(181.001953 0)"/>
     <use xlink:href="#DejaVuSans-20" transform="translate(214.693359 0)"/>
     <use xlink:href="#DejaVuSans-72" transform="translate(246.480469 0)"/>
     <use xlink:href="#DejaVuSans-6f" transform="translate(285.34375 0)"/>
     <use xlink:href="#DejaVuSans-6c" transform="translate(346.525391 0)"/>
     <use xlink:href="#DejaVuSans-6c" transform="translate(374.308594 0)"/>
     <use xlink:href="#DejaVuSans-65" transform="translate(402.091797 0)"/>
     <use xlink:href="#DejaVuSans-72" transform="translate(463.615234 0)"/>
     <use xlink:href="#DejaVuSans-20" transform="translate(504.728516 0)"/>
     <use xlink:href="#DejaVuSans-73" transform="translate(536.515625 0)"/>
     <use xlink:href="#DejaVuSans-75" transform="translate(588.615234 0)"/>
     <use xlink:href="#DejaVuSans-70" transform="translate(651.994141 0)"/>
     <use xlink:href="#DejaVuSans-70" transform="translate(715.470703 0)"/>
     <use xlink:href="#DejaVuSans-6f" transform="translate(778.947266 0)"/>
     <use xlink:href="#DejaVuSans-72" transform="translate(840.128906 0)"/>
     <use xlink:href="#DejaVuSans-74" transform="translate(881.242188 0)"/>
    </g>
   </g>
  </g>
 </g>
 <defs>
  <clipPath id="paa9044688a">
   <rect x="7.2" y="21.558281" width="292.5" height="111.428571"/>
  </clipPath>
  <clipPath id="p1757e7fcde">
   <rect x="310.5" y="21.558281" width="292.5" height="111.428571"/>
  </clipPath>
  <clipPath id="pf972780898">
   <rect x="613.8" y="21.558281" width="292.5" height="111.428571"/>
  </clipPath>
  <clipPath id="p9f01c7ebd5">
   <rect x="917.1" y="21.558281" width="292.5" height="111.428571"/>
  </clipPath>
 </defs>
 <defs>
  <pattern id="hde6e3599d9" patternUnits="userSpaceOnUse" x="0" y="0" width="72" height="72">
   <rect x="0" y="0" width="73" height="73" fill="none"/>
   <path d="M -36 36 
L 36 -36 
M -33 39 
L 39 -33 
M -30 42 
L 42 -30 
M -27 45 
L 45 -27 
M -24 48 
L 48 -24 
M -21 51 
L 51 -21 
M -18 54 
L 54 -18 
M -15 57 
L 57 -15 
M -12 60 
L 60 -12 
M -9 63 
L 63 -9 
M -6 66 
L 66 -6 
M -3 69 
L 69 -3 
M 0 72 
L 72 0 
M 3 75 
L 75 3 
M 6 78 
L 78 6 
M 9 81 
L 81 9 
M 12 84 
L 84 12 
M 15 87 
L 87 15 
M 18 90 
L 90 18 
M 21 93 
L 93 21 
M 24 96 
L 96 24 
M 27 99 
L 99 27 
M 30 102 
L 102 30 
M 33 105 
L 105 33 
M 36 108 
L 108 36 
" style="fill: #1f77b4; stroke: #1f77b4; stroke-width: 1.0; stroke-linecap: butt; stroke-linejoin: miter"/>
  </pattern>
 </defs>
</svg>
