<?xml version="1.0" encoding="utf-8" standalone="no"?>
<!DOCTYPE svg PUBLIC "-//W3C//DTD SVG 1.1//EN"
  "http://www.w3.org/Graphics/SVG/1.1/DTD/svg11.dtd">
<svg xmlns:xlink="http://www.w3.org/1999/xlink" width="723.765625pt" height="323.39625pt" viewBox="0 0 723.765625 323.39625" xmlns="http://www.w3.org/2000/svg" version="1.1">
 <metadata>
  <rdf:RDF xmlns:dc="http://purl.org/dc/elements/1.1/" xmlns:cc="http://creativecommons.org/ns#" xmlns:rdf="http://www.w3.org/1999/02/22-rdf-syntax-ns#">
   <cc:Work>
    <dc:type rdf:resource="http://purl.org/dc/dcmitype/StillImage"/>
    <dc:date>2026-06-26T11:17:43.568244</dc:date>
    <dc:format>image/svg+xml</dc:format>
    <dc:creator>
     <cc:Agent>
      <dc:title>Matplotlib v3.10.8, https://matplotlib.org/</dc:title>
     </cc:Agent>
    </dc:creator>
   </cc:Work>
  </rdf:RDF>
 </metadata>
 <defs>
  <style type="text/css">*{stroke-linejoin: round; stroke-linecap: butt}</style>
 </defs>
 <g id="figure_1">
  <g id="patch_1">
   <path d="M 0 323.39625 
L 723.765625 323.39625 
L 723.765625 0 
L 0 0 
z
" style="fill: #ffffff"/>
  </g>
  <g id="axes_1">
   <g id="patch_2">
    <path d="M 46.965625 299.518125 
L 351.329261 299.518125 
L 351.329261 22.318125 
L 46.965625 22.318125 
z
" style="fill: #ffffff"/>
   </g>
   <g id="patch_3">
    <path d="M 60.800336 299.518125 
L 97.421629 299.518125 
L 97.421629 172.308988 
L 60.800336 172.308988 
z
" clip-path="url(#p9be48a3b03)" style="fill: #1f77b4; opacity: 0.8"/>
   </g>
   <g id="patch_4">
    <path d="M 162.52615 299.518125 
L 199.147443 299.518125 
L 199.147443 106.519477 
L 162.52615 106.519477 
z
" clip-path="url(#p9be48a3b03)" style="fill: #1f77b4; opacity: 0.8"/>
   </g>
   <g id="patch_5">
    <path d="M 264.251964 299.518125 
L 300.873257 299.518125 
L 300.873257 174.728412 
L 264.251964 174.728412 
z
" clip-path="url(#p9be48a3b03)" style="fill: #1f77b4; opacity: 0.8"/>
   </g>
   <g id="patch_6">
    <path d="M 97.421629 299.518125 
L 134.042922 299.518125 
L 134.042922 172.331236 
L 97.421629 172.331236 
z
" clip-path="url(#p9be48a3b03)" style="fill: #ff7f0e; opacity: 0.8"/>
   </g>
   <g id="patch_7">
    <path d="M 199.147443 299.518125 
L 235.768736 299.518125 
L 235.768736 36.330853 
L 199.147443 36.330853 
z
" clip-path="url(#p9be48a3b03)" style="fill: #ff7f0e; opacity: 0.8"/>
   </g>
   <g id="patch_8">
    <path d="M 300.873257 299.518125 
L 337.494551 299.518125 
L 337.494551 173.643903 
L 300.873257 173.643903 
z
" clip-path="url(#p9be48a3b03)" style="fill: #ff7f0e; opacity: 0.8"/>
   </g>
   <g id="matplotlib.axis_1">
    <g id="xtick_1">
     <g id="line2d_1">
      <defs>
       <path id="mcfb07f4f74" d="M 0 0 
L 0 3.5 
" style="stroke: #000000; stroke-width: 0.8"/>
      </defs>
      <g>
       <use xlink:href="#mcfb07f4f74" x="97.421629" y="299.518125" style="stroke: #000000; stroke-width: 0.8"/>
      </g>
     </g>
     <g id="text_1">
      <!-- OC -->
      <g transform="translate(89.994285 314.116563) scale(0.1 -0.1)">
       <defs>
        <path id="DejaVuSans-4f" d="M 2522 4238 
Q 1834 4238 1429 3725 
Q 1025 3213 1025 2328 
Q 1025 1447 1429 934 
Q 1834 422 2522 422 
Q 3209 422 3611 934 
Q 4013 1447 4013 2328 
Q 4013 3213 3611 3725 
Q 3209 4238 2522 4238 
z
M 2522 4750 
Q 3503 4750 4090 4092 
Q 4678 3434 4678 2328 
Q 4678 1225 4090 567 
Q 3503 -91 2522 -91 
Q 1538 -91 948 565 
Q 359 1222 359 2328 
Q 359 3434 948 4092 
Q 1538 4750 2522 4750 
z
" transform="scale(0.015625)"/>
        <path id="DejaVuSans-43" d="M 4122 4306 
L 4122 3641 
Q 3803 3938 3442 4084 
Q 3081 4231 2675 4231 
Q 1875 4231 1450 3742 
Q 1025 3253 1025 2328 
Q 1025 1406 1450 917 
Q 1875 428 2675 428 
Q 3081 428 3442 575 
Q 3803 722 4122 1019 
L 4122 359 
Q 3791 134 3420 21 
Q 3050 -91 2638 -91 
Q 1578 -91 968 557 
Q 359 1206 359 2328 
Q 359 3453 968 4101 
Q 1578 4750 2638 4750 
Q 3056 4750 3426 4639 
Q 3797 4528 4122 4306 
z
" transform="scale(0.015625)"/>
       </defs>
       <use xlink:href="#DejaVuSans-4f"/>
       <use xlink:href="#DejaVuSans-43" transform="translate(78.710938 0)"/>
      </g>
     </g>
    </g>
    <g id="xtick_2">
     <g id="line2d_2">
      <g>
       <use xlink:href="#mcfb07f4f74" x="199.147443" y="299.518125" style="stroke: #000000; stroke-width: 0.8"/>
      </g>
     </g>
     <g id="text_2">
      <!-- GD -->
      <g transform="translate(191.423224 314.116563) scale(0.1 -0.1)">
       <defs>
        <path id="DejaVuSans-47" d="M 3809 666 
L 3809 1919 
L 2778 1919 
L 2778 2438 
L 4434 2438 
L 4434 434 
Q 4069 175 3628 42 
Q 3188 -91 2688 -91 
Q 1594 -91 976 548 
Q 359 1188 359 2328 
Q 359 3472 976 4111 
Q 1594 4750 2688 4750 
Q 3144 4750 3555 4637 
Q 3966 4525 4313 4306 
L 4313 3634 
Q 3963 3931 3569 4081 
Q 3175 4231 2741 4231 
Q 1884 4231 1454 3753 
Q 1025 3275 1025 2328 
Q 1025 1384 1454 906 
Q 1884 428 2741 428 
Q 3075 428 3337 486 
Q 3600 544 3809 666 
z
" transform="scale(0.015625)"/>
        <path id="DejaVuSans-44" d="M 1259 4147 
L 1259 519 
L 2022 519 
Q 2988 519 3436 956 
Q 3884 1394 3884 2338 
Q 3884 3275 3436 3711 
Q 2988 4147 2022 4147 
L 1259 4147 
z
M 628 4666 
L 1925 4666 
Q 3281 4666 3915 4102 
Q 4550 3538 4550 2338 
Q 4550 1131 3912 565 
Q 3275 0 1925 0 
L 628 0 
L 628 4666 
z
" transform="scale(0.015625)"/>
       </defs>
       <use xlink:href="#DejaVuSans-47"/>
       <use xlink:href="#DejaVuSans-44" transform="translate(77.490234 0)"/>
      </g>
     </g>
    </g>
    <g id="xtick_3">
     <g id="line2d_3">
      <g>
       <use xlink:href="#mcfb07f4f74" x="300.873257" y="299.518125" style="stroke: #000000; stroke-width: 0.8"/>
      </g>
     </g>
     <g id="text_3">
      <!-- MMA -->
      <g transform="translate(288.82482 314.116563) scale(0.1 -0.1)">
       <defs>
        <path id="DejaVuSans-4d" d="M 628 4666 
L 1569 4666 
L 2759 1491 
L 3956 4666 
L 4897 4666 
L 4897 0 
L 4281 0 
L 4281 4097 
L 3078 897 
L 2444 897 
L 1241 4097 
L 1241 0 
L 628 0 
L 628 4666 
z
" transform="scale(0.015625)"/>
        <path id="DejaVuSans-41" d="M 2188 4044 
L 1331 1722 
L 3047 1722 
L 2188 4044 
z
M 1831 4666 
L 2547 4666 
L 4325 0 
L 3669 0 
L 3244 1197 
L 1141 1197 
L 716 0 
L 50 0 
L 1831 4666 
z
" transform="scale(0.015625)"/>
       </defs>
       <use xlink:href="#DejaVuSans-4d"/>
       <use xlink:href="#DejaVuSans-4d" transform="translate(86.279297 0)"/>
       <use xlink:href="#DejaVuSans-41" transform="translate(172.558594 0)"/>
      </g>
     </g>
    </g>
   </g>
   <g id="matplotlib.axis_2">
    <g id="ytick_1">
     <g id="line2d_4">
      <path d="M 46.965625 299.518125 
L 351.329261 299.518125 
" clip-path="url(#p9be48a3b03)" style="fill: none; stroke: #b0b0b0; stroke-opacity: 0.3; stroke-width: 0.8; stroke-linecap: square"/>
     </g>
     <g id="line2d_5">
      <defs>
       <path id="m5f80e338b4" d="M 0 0 
L -3.5 0 
" style="stroke: #000000; stroke-width: 0.8"/>
      </defs>
      <g>
       <use xlink:href="#m5f80e338b4" x="46.965625" y="299.518125" style="stroke: #000000; stroke-width: 0.8"/>
      </g>
     </g>
     <g id="text_4">
      <!-- 0 -->
      <g transform="translate(33.603125 303.317344) scale(0.1 -0.1)">
       <defs>
        <path id="DejaVuSans-30" d="M 2034 4250 
Q 1547 4250 1301 3770 
Q 1056 3291 1056 2328 
Q 1056 1369 1301 889 
Q 1547 409 2034 409 
Q 2525 409 2770 889 
Q 3016 1369 3016 2328 
Q 3016 3291 2770 3770 
Q 2525 4250 2034 4250 
z
M 2034 4750 
Q 2819 4750 3233 4129 
Q 3647 3509 3647 2328 
Q 3647 1150 3233 529 
Q 2819 -91 2034 -91 
Q 1250 -91 836 529 
Q 422 1150 422 2328 
Q 422 3509 836 4129 
Q 1250 4750 2034 4750 
z
" transform="scale(0.015625)"/>
       </defs>
       <use xlink:href="#DejaVuSans-30"/>
      </g>
     </g>
    </g>
    <g id="ytick_2">
     <g id="line2d_6">
      <path d="M 46.965625 255.893443 
L 351.329261 255.893443 
" clip-path="url(#p9be48a3b03)" style="fill: none; stroke: #b0b0b0; stroke-opacity: 0.3; stroke-width: 0.8; stroke-linecap: square"/>
     </g>
     <g id="line2d_7">
      <g>
       <use xlink:href="#m5f80e338b4" x="46.965625" y="255.893443" style="stroke: #000000; stroke-width: 0.8"/>
      </g>
     </g>
     <g id="text_5">
      <!-- 100 -->
      <g transform="translate(20.878125 259.692661) scale(0.1 -0.1)">
       <defs>
        <path id="DejaVuSans-31" d="M 794 531 
L 1825 531 
L 1825 4091 
L 703 3866 
L 703 4441 
L 1819 4666 
L 2450 4666 
L 2450 531 
L 3481 531 
L 3481 0 
L 794 0 
L 794 531 
z
" transform="scale(0.015625)"/>
       </defs>
       <use xlink:href="#DejaVuSans-31"/>
       <use xlink:href="#DejaVuSans-30" transform="translate(63.623047 0)"/>
       <use xlink:href="#DejaVuSans-30" transform="translate(127.246094 0)"/>
      </g>
     </g>
    </g>
    <g id="ytick_3">
     <g id="line2d_8">
      <path d="M 46.965625 212.26876 
L 351.329261 212.26876 
" clip-path="url(#p9be48a3b03)" style="fill: none; stroke: #b0b0b0; stroke-opacity: 0.3; stroke-width: 0.8; stroke-linecap: square"/>
     </g>
     <g id="line2d_9">
      <g>
       <use xlink:href="#m5f80e338b4" x="46.965625" y="212.26876" style="stroke: #000000; stroke-width: 0.8"/>
      </g>
     </g>
     <g id="text_6">
      <!-- 200 -->
      <g transform="translate(20.878125 216.067979) scale(0.1 -0.1)">
       <defs>
        <path id="DejaVuSans-32" d="M 1228 531 
L 3431 531 
L 3431 0 
L 469 0 
L 469 531 
Q 828 903 1448 1529 
Q 2069 2156 2228 2338 
Q 2531 2678 2651 2914 
Q 2772 3150 2772 3378 
Q 2772 3750 2511 3984 
Q 2250 4219 1831 4219 
Q 1534 4219 1204 4116 
Q 875 4013 500 3803 
L 500 4441 
Q 881 4594 1212 4672 
Q 1544 4750 1819 4750 
Q 2544 4750 2975 4387 
Q 3406 4025 3406 3419 
Q 3406 3131 3298 2873 
Q 3191 2616 2906 2266 
Q 2828 2175 2409 1742 
Q 1991 1309 1228 531 
z
" transform="scale(0.015625)"/>
       </defs>
       <use xlink:href="#DejaVuSans-32"/>
       <use xlink:href="#DejaVuSans-30" transform="translate(63.623047 0)"/>
       <use xlink:href="#DejaVuSans-30" transform="translate(127.246094 0)"/>
      </g>
     </g>
    </g>
    <g id="ytick_4">
     <g id="line2d_10">
      <path d="M 46.965625 168.644078 
L 351.329261 168.644078 
" clip-path="url(#p9be48a3b03)" style="fill: none; stroke: #b0b0b0; stroke-opacity: 0.3; stroke-width: 0.8; stroke-linecap: square"/>
     </g>
     <g id="line2d_11">
      <g>
       <use xlink:href="#m5f80e338b4" x="46.965625" y="168.644078" style="stroke: #000000; stroke-width: 0.8"/>
      </g>
     </g>
     <g id="text_7">
      <!-- 300 -->
      <g transform="translate(20.878125 172.443297) scale(0.1 -0.1)">
       <defs>
        <path id="DejaVuSans-33" d="M 2597 2516 
Q 3050 2419 3304 2112 
Q 3559 1806 3559 1356 
Q 3559 666 3084 287 
Q 2609 -91 1734 -91 
Q 1441 -91 1130 -33 
Q 819 25 488 141 
L 488 750 
Q 750 597 1062 519 
Q 1375 441 1716 441 
Q 2309 441 2620 675 
Q 2931 909 2931 1356 
Q 2931 1769 2642 2001 
Q 2353 2234 1838 2234 
L 1294 2234 
L 1294 2753 
L 1863 2753 
Q 2328 2753 2575 2939 
Q 2822 3125 2822 3475 
Q 2822 3834 2567 4026 
Q 2313 4219 1838 4219 
Q 1578 4219 1281 4162 
Q 984 4106 628 3988 
L 628 4550 
Q 988 4650 1302 4700 
Q 1616 4750 1894 4750 
Q 2613 4750 3031 4423 
Q 3450 4097 3450 3541 
Q 3450 3153 3228 2886 
Q 3006 2619 2597 2516 
z
" transform="scale(0.015625)"/>
       </defs>
       <use xlink:href="#DejaVuSans-33"/>
       <use xlink:href="#DejaVuSans-30" transform="translate(63.623047 0)"/>
       <use xlink:href="#DejaVuSans-30" transform="translate(127.246094 0)"/>
      </g>
     </g>
    </g>
    <g id="ytick_5">
     <g id="line2d_12">
      <path d="M 46.965625 125.019396 
L 351.329261 125.019396 
" clip-path="url(#p9be48a3b03)" style="fill: none; stroke: #b0b0b0; stroke-opacity: 0.3; stroke-width: 0.8; stroke-linecap: square"/>
     </g>
     <g id="line2d_13">
      <g>
       <use xlink:href="#m5f80e338b4" x="46.965625" y="125.019396" style="stroke: #000000; stroke-width: 0.8"/>
      </g>
     </g>
     <g id="text_8">
      <!-- 400 -->
      <g transform="translate(20.878125 128.818614) scale(0.1 -0.1)">
       <defs>
        <path id="DejaVuSans-34" d="M 2419 4116 
L 825 1625 
L 2419 1625 
L 2419 4116 
z
M 2253 4666 
L 3047 4666 
L 3047 1625 
L 3713 1625 
L 3713 1100 
L 3047 1100 
L 3047 0 
L 2419 0 
L 2419 1100 
L 313 1100 
L 313 1709 
L 2253 4666 
z
" transform="scale(0.015625)"/>
       </defs>
       <use xlink:href="#DejaVuSans-34"/>
       <use xlink:href="#DejaVuSans-30" transform="translate(63.623047 0)"/>
       <use xlink:href="#DejaVuSans-30" transform="translate(127.246094 0)"/>
      </g>
     </g>
    </g>
    <g id="ytick_6">
     <g id="line2d_14">
      <path d="M 46.965625 81.394713 
L 351.329261 81.394713 
" clip-path="url(#p9be48a3b03)" style="fill: none; stroke: #b0b0b0; stroke-opacity: 0.3; stroke-width: 0.8; stroke-linecap: square"/>
     </g>
     <g id="line2d_15">
      <g>
       <use xlink:href="#m5f80e338b4" x="46.965625" y="81.394713" style="stroke: #000000; stroke-width: 0.8"/>
      </g>
     </g>
     <g id="text_9">
      <!-- 500 -->
      <g transform="translate(20.878125 85.193932) scale(0.1 -0.1)">
       <defs>
        <path id="DejaVuSans-35" d="M 691 4666 
L 3169 4666 
L 3169 4134 
L 1269 4134 
L 1269 2991 
Q 1406 3038 1543 3061 
Q 1681 3084 1819 3084 
Q 2600 3084 3056 2656 
Q 3513 2228 3513 1497 
Q 3513 744 3044 326 
Q 2575 -91 1722 -91 
Q 1428 -91 1123 -41 
Q 819 9 494 109 
L 494 744 
Q 775 591 1075 516 
Q 1375 441 1709 441 
Q 2250 441 2565 725 
Q 2881 1009 2881 1497 
Q 2881 1984 2565 2268 
Q 2250 2553 1709 2553 
Q 1456 2553 1204 2497 
Q 953 2441 691 2322 
L 691 4666 
z
" transform="scale(0.015625)"/>
       </defs>
       <use xlink:href="#DejaVuSans-35"/>
       <use xlink:href="#DejaVuSans-30" transform="translate(63.623047 0)"/>
       <use xlink:href="#DejaVuSans-30" transform="translate(127.246094 0)"/>
      </g>
     </g>
    </g>
    <g id="ytick_7">
     <g id="line2d_16">
      <path d="M 46.965625 37.770031 
L 351.329261 37.770031 
" clip-path="url(#p9be48a3b03)" style="fill: none; stroke: #b0b0b0; stroke-opacity: 0.3; stroke-width: 0.8; stroke-linecap: square"/>
     </g>
     <g id="line2d_17">
      <g>
       <use xlink:href="#m5f80e338b4" x="46.965625" y="37.770031" style="stroke: #000000; stroke-width: 0.8"/>
      </g>
     </g>
     <g id="text_10">
      <!-- 600 -->
      <g transform="translate(20.878125 41.56925) scale(0.1 -0.1)">
       <defs>
        <path id="DejaVuSans-36" d="M 2113 2584 
Q 1688 2584 1439 2293 
Q 1191 2003 1191 1497 
Q 1191 994 1439 701 
Q 1688 409 2113 409 
Q 2538 409 2786 701 
Q 3034 994 3034 1497 
Q 3034 2003 2786 2293 
Q 2538 2584 2113 2584 
z
M 3366 4563 
L 3366 3988 
Q 3128 4100 2886 4159 
Q 2644 4219 2406 4219 
Q 1781 4219 1451 3797 
Q 1122 3375 1075 2522 
Q 1259 2794 1537 2939 
Q 1816 3084 2150 3084 
Q 2853 3084 3261 2657 
Q 3669 2231 3669 1497 
Q 3669 778 3244 343 
Q 2819 -91 2113 -91 
Q 1303 -91 875 529 
Q 447 1150 447 2328 
Q 447 3434 972 4092 
Q 1497 4750 2381 4750 
Q 2619 4750 2861 4703 
Q 3103 4656 3366 4563 
z
" transform="scale(0.015625)"/>
       </defs>
       <use xlink:href="#DejaVuSans-36"/>
       <use xlink:href="#DejaVuSans-30" transform="translate(63.623047 0)"/>
       <use xlink:href="#DejaVuSans-30" transform="translate(127.246094 0)"/>
      </g>
     </g>
    </g>
    <g id="text_11">
     <!-- Final compliance (J) -->
     <g transform="translate(14.798438 209.686875) rotate(-90) scale(0.1 -0.1)">
      <defs>
       <path id="DejaVuSans-46" d="M 628 4666 
L 3309 4666 
L 3309 4134 
L 1259 4134 
L 1259 2759 
L 3109 2759 
L 3109 2228 
L 1259 2228 
L 1259 0 
L 628 0 
L 628 4666 
z
" transform="scale(0.015625)"/>
       <path id="DejaVuSans-69" d="M 603 3500 
L 1178 3500 
L 1178 0 
L 603 0 
L 603 3500 
z
M 603 4863 
L 1178 4863 
L 1178 4134 
L 603 4134 
L 603 4863 
z
" transform="scale(0.015625)"/>
       <path id="DejaVuSans-6e" d="M 3513 2113 
L 3513 0 
L 2938 0 
L 2938 2094 
Q 2938 2591 2744 2837 
Q 2550 3084 2163 3084 
Q 1697 3084 1428 2787 
Q 1159 2491 1159 1978 
L 1159 0 
L 581 0 
L 581 3500 
L 1159 3500 
L 1159 2956 
Q 1366 3272 1645 3428 
Q 1925 3584 2291 3584 
Q 2894 3584 3203 3211 
Q 3513 2838 3513 2113 
z
" transform="scale(0.015625)"/>
       <path id="DejaVuSans-61" d="M 2194 1759 
Q 1497 1759 1228 1600 
Q 959 1441 959 1056 
Q 959 750 1161 570 
Q 1363 391 1709 391 
Q 2188 391 2477 730 
Q 2766 1069 2766 1631 
L 2766 1759 
L 2194 1759 
z
M 3341 1997 
L 3341 0 
L 2766 0 
L 2766 531 
Q 2569 213 2275 61 
Q 1981 -91 1556 -91 
Q 1019 -91 701 211 
Q 384 513 384 1019 
Q 384 1609 779 1909 
Q 1175 2209 1959 2209 
L 2766 2209 
L 2766 2266 
Q 2766 2663 2505 2880 
Q 2244 3097 1772 3097 
Q 1472 3097 1187 3025 
Q 903 2953 641 2809 
L 641 3341 
Q 956 3463 1253 3523 
Q 1550 3584 1831 3584 
Q 2591 3584 2966 3190 
Q 3341 2797 3341 1997 
z
" transform="scale(0.015625)"/>
       <path id="DejaVuSans-6c" d="M 603 4863 
L 1178 4863 
L 1178 0 
L 603 0 
L 603 4863 
z
" transform="scale(0.015625)"/>
       <path id="DejaVuSans-20" transform="scale(0.015625)"/>
       <path id="DejaVuSans-63" d="M 3122 3366 
L 3122 2828 
Q 2878 2963 2633 3030 
Q 2388 3097 2138 3097 
Q 1578 3097 1268 2742 
Q 959 2388 959 1747 
Q 959 1106 1268 751 
Q 1578 397 2138 397 
Q 2388 397 2633 464 
Q 2878 531 3122 666 
L 3122 134 
Q 2881 22 2623 -34 
Q 2366 -91 2075 -91 
Q 1284 -91 818 406 
Q 353 903 353 1747 
Q 353 2603 823 3093 
Q 1294 3584 2113 3584 
Q 2378 3584 2631 3529 
Q 2884 3475 3122 3366 
z
" transform="scale(0.015625)"/>
       <path id="DejaVuSans-6f" d="M 1959 3097 
Q 1497 3097 1228 2736 
Q 959 2375 959 1747 
Q 959 1119 1226 758 
Q 1494 397 1959 397 
Q 2419 397 2687 759 
Q 2956 1122 2956 1747 
Q 2956 2369 2687 2733 
Q 2419 3097 1959 3097 
z
M 1959 3584 
Q 2709 3584 3137 3096 
Q 3566 2609 3566 1747 
Q 3566 888 3137 398 
Q 2709 -91 1959 -91 
Q 1206 -91 779 398 
Q 353 888 353 1747 
Q 353 2609 779 3096 
Q 1206 3584 1959 3584 
z
" transform="scale(0.015625)"/>
       <path id="DejaVuSans-6d" d="M 3328 2828 
Q 3544 3216 3844 3400 
Q 4144 3584 4550 3584 
Q 5097 3584 5394 3201 
Q 5691 2819 5691 2113 
L 5691 0 
L 5113 0 
L 5113 2094 
Q 5113 2597 4934 2840 
Q 4756 3084 4391 3084 
Q 3944 3084 3684 2787 
Q 3425 2491 3425 1978 
L 3425 0 
L 2847 0 
L 2847 2094 
Q 2847 2600 2669 2842 
Q 2491 3084 2119 3084 
Q 1678 3084 1418 2786 
Q 1159 2488 1159 1978 
L 1159 0 
L 581 0 
L 581 3500 
L 1159 3500 
L 1159 2956 
Q 1356 3278 1631 3431 
Q 1906 3584 2284 3584 
Q 2666 3584 2933 3390 
Q 3200 3197 3328 2828 
z
" transform="scale(0.015625)"/>
       <path id="DejaVuSans-70" d="M 1159 525 
L 1159 -1331 
L 581 -1331 
L 581 3500 
L 1159 3500 
L 1159 2969 
Q 1341 3281 1617 3432 
Q 1894 3584 2278 3584 
Q 2916 3584 3314 3078 
Q 3713 2572 3713 1747 
Q 3713 922 3314 415 
Q 2916 -91 2278 -91 
Q 1894 -91 1617 61 
Q 1341 213 1159 525 
z
M 3116 1747 
Q 3116 2381 2855 2742 
Q 2594 3103 2138 3103 
Q 1681 3103 1420 2742 
Q 1159 2381 1159 1747 
Q 1159 1113 1420 752 
Q 1681 391 2138 391 
Q 2594 391 2855 752 
Q 3116 1113 3116 1747 
z
" transform="scale(0.015625)"/>
       <path id="DejaVuSans-65" d="M 3597 1894 
L 3597 1613 
L 953 1613 
Q 991 1019 1311 708 
Q 1631 397 2203 397 
Q 2534 397 2845 478 
Q 3156 559 3463 722 
L 3463 178 
Q 3153 47 2828 -22 
Q 2503 -91 2169 -91 
Q 1331 -91 842 396 
Q 353 884 353 1716 
Q 353 2575 817 3079 
Q 1281 3584 2069 3584 
Q 2775 3584 3186 3129 
Q 3597 2675 3597 1894 
z
M 3022 2063 
Q 3016 2534 2758 2815 
Q 2500 3097 2075 3097 
Q 1594 3097 1305 2825 
Q 1016 2553 972 2059 
L 3022 2063 
z
" transform="scale(0.015625)"/>
       <path id="DejaVuSans-28" d="M 1984 4856 
Q 1566 4138 1362 3434 
Q 1159 2731 1159 2009 
Q 1159 1288 1364 580 
Q 1569 -128 1984 -844 
L 1484 -844 
Q 1016 -109 783 600 
Q 550 1309 550 2009 
Q 550 2706 781 3412 
Q 1013 4119 1484 4856 
L 1984 4856 
z
" transform="scale(0.015625)"/>
       <path id="DejaVuSans-4a" d="M 628 4666 
L 1259 4666 
L 1259 325 
Q 1259 -519 939 -900 
Q 619 -1281 -91 -1281 
L -331 -1281 
L -331 -750 
L -134 -750 
Q 284 -750 456 -515 
Q 628 -281 628 325 
L 628 4666 
z
" transform="scale(0.015625)"/>
       <path id="DejaVuSans-29" d="M 513 4856 
L 1013 4856 
Q 1481 4119 1714 3412 
Q 1947 2706 1947 2009 
Q 1947 1309 1714 600 
Q 1481 -109 1013 -844 
L 513 -844 
Q 928 -128 1133 580 
Q 1338 1288 1338 2009 
Q 1338 2731 1133 3434 
Q 928 4138 513 4856 
z
" transform="scale(0.015625)"/>
      </defs>
      <use xlink:href="#DejaVuSans-46"/>
      <use xlink:href="#DejaVuSans-69" transform="translate(50.269531 0)"/>
      <use xlink:href="#DejaVuSans-6e" transform="translate(78.052734 0)"/>
      <use xlink:href="#DejaVuSans-61" transform="translate(141.431641 0)"/>
      <use xlink:href="#DejaVuSans-6c" transform="translate(202.710938 0)"/>
      <use xlink:href="#DejaVuSans-20" transform="translate(230.494141 0)"/>
      <use xlink:href="#DejaVuSans-63" transform="translate(262.28125 0)"/>
      <use xlink:href="#DejaVuSans-6f" transform="translate(317.261719 0)"/>
      <use xlink:href="#DejaVuSans-6d" transform="translate(378.443359 0)"/>
      <use xlink:href="#DejaVuSans-70" transform="translate(475.855469 0)"/>
      <use xlink:href="#DejaVuSans-6c" transform="translate(539.332031 0)"/>
      <use xlink:href="#DejaVuSans-69" transform="translate(567.115234 0)"/>
      <use xlink:href="#DejaVuSans-61" transform="translate(594.898438 0)"/>
      <use xlink:href="#DejaVuSans-6e" transform="translate(656.177734 0)"/>
      <use xlink:href="#DejaVuSans-63" transform="translate(719.556641 0)"/>
      <use xlink:href="#DejaVuSans-65" transform="translate(774.537109 0)"/>
      <use xlink:href="#DejaVuSans-20" transform="translate(836.060547 0)"/>
      <use xlink:href="#DejaVuSans-28" transform="translate(867.847656 0)"/>
      <use xlink:href="#DejaVuSans-4a" transform="translate(906.861328 0)"/>
      <use xlink:href="#DejaVuSans-29" transform="translate(936.353516 0)"/>
     </g>
    </g>
   </g>
   <g id="LineCollection_1">
    <path d="M 79.110982 172.342142 
L 79.110982 172.275833 
" clip-path="url(#p9be48a3b03)" style="fill: none; stroke: #000000; stroke-width: 1.5"/>
    <path d="M 180.836797 108.556749 
L 180.836797 104.482204 
" clip-path="url(#p9be48a3b03)" style="fill: none; stroke: #000000; stroke-width: 1.5"/>
    <path d="M 282.562611 175.646276 
L 282.562611 173.810549 
" clip-path="url(#p9be48a3b03)" style="fill: none; stroke: #000000; stroke-width: 1.5"/>
   </g>
   <g id="line2d_18">
    <defs>
     <path id="mc3dff995cb" d="M 4 0 
L -4 -0 
" style="stroke: #000000"/>
    </defs>
    <g clip-path="url(#p9be48a3b03)">
     <use xlink:href="#mc3dff995cb" x="79.110982" y="172.342142" style="fill: #1f77b4; stroke: #000000"/>
     <use xlink:href="#mc3dff995cb" x="180.836797" y="108.556749" style="fill: #1f77b4; stroke: #000000"/>
     <use xlink:href="#mc3dff995cb" x="282.562611" y="175.646276" style="fill: #1f77b4; stroke: #000000"/>
    </g>
   </g>
   <g id="line2d_19">
    <g clip-path="url(#p9be48a3b03)">
     <use xlink:href="#mc3dff995cb" x="79.110982" y="172.275833" style="fill: #1f77b4; stroke: #000000"/>
     <use xlink:href="#mc3dff995cb" x="180.836797" y="104.482204" style="fill: #1f77b4; stroke: #000000"/>
     <use xlink:href="#mc3dff995cb" x="282.562611" y="173.810549" style="fill: #1f77b4; stroke: #000000"/>
    </g>
   </g>
   <g id="LineCollection_2">
    <path d="M 115.732275 172.522749 
L 115.732275 172.139724 
" clip-path="url(#p9be48a3b03)" style="fill: none; stroke: #000000; stroke-width: 1.5"/>
    <path d="M 217.45809 37.143581 
L 217.45809 35.518125 
" clip-path="url(#p9be48a3b03)" style="fill: none; stroke: #000000; stroke-width: 1.5"/>
    <path d="M 319.183904 173.810985 
L 319.183904 173.47682 
" clip-path="url(#p9be48a3b03)" style="fill: none; stroke: #000000; stroke-width: 1.5"/>
   </g>
   <g id="line2d_20">
    <g clip-path="url(#p9be48a3b03)">
     <use xlink:href="#mc3dff995cb" x="115.732275" y="172.522749" style="fill: #1f77b4; stroke: #000000"/>
     <use xlink:href="#mc3dff995cb" x="217.45809" y="37.143581" style="fill: #1f77b4; stroke: #000000"/>
     <use xlink:href="#mc3dff995cb" x="319.183904" y="173.810985" style="fill: #1f77b4; stroke: #000000"/>
    </g>
   </g>
   <g id="line2d_21">
    <g clip-path="url(#p9be48a3b03)">
     <use xlink:href="#mc3dff995cb" x="115.732275" y="172.139724" style="fill: #1f77b4; stroke: #000000"/>
     <use xlink:href="#mc3dff995cb" x="217.45809" y="35.518125" style="fill: #1f77b4; stroke: #000000"/>
     <use xlink:href="#mc3dff995cb" x="319.183904" y="173.47682" style="fill: #1f77b4; stroke: #000000"/>
    </g>
   </g>
   <g id="patch_9">
    <path d="M 46.965625 299.518125 
L 46.965625 22.318125 
" style="fill: none; stroke: #000000; stroke-width: 0.8; stroke-linejoin: miter; stroke-linecap: square"/>
   </g>
   <g id="patch_10">
    <path d="M 351.329261 299.518125 
L 351.329261 22.318125 
" style="fill: none; stroke: #000000; stroke-width: 0.8; stroke-linejoin: miter; stroke-linecap: square"/>
   </g>
   <g id="patch_11">
    <path d="M 46.965625 299.518125 
L 351.329261 299.518125 
" style="fill: none; stroke: #000000; stroke-width: 0.8; stroke-linejoin: miter; stroke-linecap: square"/>
   </g>
   <g id="patch_12">
    <path d="M 46.965625 22.318125 
L 351.329261 22.318125 
" style="fill: none; stroke: #000000; stroke-width: 0.8; stroke-linejoin: miter; stroke-linecap: square"/>
   </g>
   <g id="text_12">
    <!-- Compliance: fixed vs continuation -->
    <g transform="translate(97.199943 16.318125) scale(0.12 -0.12)">
     <defs>
      <path id="DejaVuSans-3a" d="M 750 794 
L 1409 794 
L 1409 0 
L 750 0 
L 750 794 
z
M 750 3309 
L 1409 3309 
L 1409 2516 
L 750 2516 
L 750 3309 
z
" transform="scale(0.015625)"/>
      <path id="DejaVuSans-66" d="M 2375 4863 
L 2375 4384 
L 1825 4384 
Q 1516 4384 1395 4259 
Q 1275 4134 1275 3809 
L 1275 3500 
L 2222 3500 
L 2222 3053 
L 1275 3053 
L 1275 0 
L 697 0 
L 697 3053 
L 147 3053 
L 147 3500 
L 697 3500 
L 697 3744 
Q 697 4328 969 4595 
Q 1241 4863 1831 4863 
L 2375 4863 
z
" transform="scale(0.015625)"/>
      <path id="DejaVuSans-78" d="M 3513 3500 
L 2247 1797 
L 3578 0 
L 2900 0 
L 1881 1375 
L 863 0 
L 184 0 
L 1544 1831 
L 300 3500 
L 978 3500 
L 1906 2253 
L 2834 3500 
L 3513 3500 
z
" transform="scale(0.015625)"/>
      <path id="DejaVuSans-64" d="M 2906 2969 
L 2906 4863 
L 3481 4863 
L 3481 0 
L 2906 0 
L 2906 525 
Q 2725 213 2448 61 
Q 2172 -91 1784 -91 
Q 1150 -91 751 415 
Q 353 922 353 1747 
Q 353 2572 751 3078 
Q 1150 3584 1784 3584 
Q 2172 3584 2448 3432 
Q 2725 3281 2906 2969 
z
M 947 1747 
Q 947 1113 1208 752 
Q 1469 391 1925 391 
Q 2381 391 2643 752 
Q 2906 1113 2906 1747 
Q 2906 2381 2643 2742 
Q 2381 3103 1925 3103 
Q 1469 3103 1208 2742 
Q 947 2381 947 1747 
z
" transform="scale(0.015625)"/>
      <path id="DejaVuSans-76" d="M 191 3500 
L 800 3500 
L 1894 563 
L 2988 3500 
L 3597 3500 
L 2284 0 
L 1503 0 
L 191 3500 
z
" transform="scale(0.015625)"/>
      <path id="DejaVuSans-73" d="M 2834 3397 
L 2834 2853 
Q 2591 2978 2328 3040 
Q 2066 3103 1784 3103 
Q 1356 3103 1142 2972 
Q 928 2841 928 2578 
Q 928 2378 1081 2264 
Q 1234 2150 1697 2047 
L 1894 2003 
Q 2506 1872 2764 1633 
Q 3022 1394 3022 966 
Q 3022 478 2636 193 
Q 2250 -91 1575 -91 
Q 1294 -91 989 -36 
Q 684 19 347 128 
L 347 722 
Q 666 556 975 473 
Q 1284 391 1588 391 
Q 1994 391 2212 530 
Q 2431 669 2431 922 
Q 2431 1156 2273 1281 
Q 2116 1406 1581 1522 
L 1381 1569 
Q 847 1681 609 1914 
Q 372 2147 372 2553 
Q 372 3047 722 3315 
Q 1072 3584 1716 3584 
Q 2034 3584 2315 3537 
Q 2597 3491 2834 3397 
z
" transform="scale(0.015625)"/>
      <path id="DejaVuSans-74" d="M 1172 4494 
L 1172 3500 
L 2356 3500 
L 2356 3053 
L 1172 3053 
L 1172 1153 
Q 1172 725 1289 603 
Q 1406 481 1766 481 
L 2356 481 
L 2356 0 
L 1766 0 
Q 1100 0 847 248 
Q 594 497 594 1153 
L 594 3053 
L 172 3053 
L 172 3500 
L 594 3500 
L 594 4494 
L 1172 4494 
z
" transform="scale(0.015625)"/>
      <path id="DejaVuSans-75" d="M 544 1381 
L 544 3500 
L 1119 3500 
L 1119 1403 
Q 1119 906 1312 657 
Q 1506 409 1894 409 
Q 2359 409 2629 706 
Q 2900 1003 2900 1516 
L 2900 3500 
L 3475 3500 
L 3475 0 
L 2900 0 
L 2900 538 
Q 2691 219 2414 64 
Q 2138 -91 1772 -91 
Q 1169 -91 856 284 
Q 544 659 544 1381 
z
M 1991 3584 
L 1991 3584 
z
" transform="scale(0.015625)"/>
     </defs>
     <use xlink:href="#DejaVuSans-43"/>
     <use xlink:href="#DejaVuSans-6f" transform="translate(69.824219 0)"/>
     <use xlink:href="#DejaVuSans-6d" transform="translate(131.005859 0)"/>
     <use xlink:href="#DejaVuSans-70" transform="translate(228.417969 0)"/>
     <use xlink:href="#DejaVuSans-6c" transform="translate(291.894531 0)"/>
     <use xlink:href="#DejaVuSans-69" transform="translate(319.677734 0)"/>
     <use xlink:href="#DejaVuSans-61" transform="translate(347.460938 0)"/>
     <use xlink:href="#DejaVuSans-6e" transform="translate(408.740234 0)"/>
     <use xlink:href="#DejaVuSans-63" transform="translate(472.119141 0)"/>
     <use xlink:href="#DejaVuSans-65" transform="translate(527.099609 0)"/>
     <use xlink:href="#DejaVuSans-3a" transform="translate(588.623047 0)"/>
     <use xlink:href="#DejaVuSans-20" transform="translate(622.314453 0)"/>
     <use xlink:href="#DejaVuSans-66" transform="translate(654.101562 0)"/>
     <use xlink:href="#DejaVuSans-69" transform="translate(689.306641 0)"/>
     <use xlink:href="#DejaVuSans-78" transform="translate(717.089844 0)"/>
     <use xlink:href="#DejaVuSans-65" transform="translate(773.144531 0)"/>
     <use xlink:href="#DejaVuSans-64" transform="translate(834.667969 0)"/>
     <use xlink:href="#DejaVuSans-20" transform="translate(898.144531 0)"/>
     <use xlink:href="#DejaVuSans-76" transform="translate(929.931641 0)"/>
     <use xlink:href="#DejaVuSans-73" transform="translate(989.111328 0)"/>
     <use xlink:href="#DejaVuSans-20" transform="translate(1041.210938 0)"/>
     <use xlink:href="#DejaVuSans-63" transform="translate(1072.998047 0)"/>
     <use xlink:href="#DejaVuSans-6f" transform="translate(1127.978516 0)"/>
     <use xlink:href="#DejaVuSans-6e" transform="translate(1189.160156 0)"/>
     <use xlink:href="#DejaVuSans-74" transform="translate(1252.539062 0)"/>
     <use xlink:href="#DejaVuSans-69" transform="translate(1291.748047 0)"/>
     <use xlink:href="#DejaVuSans-6e" transform="translate(1319.53125 0)"/>
     <use xlink:href="#DejaVuSans-75" transform="translate(1382.910156 0)"/>
     <use xlink:href="#DejaVuSans-61" transform="translate(1446.289062 0)"/>
     <use xlink:href="#DejaVuSans-74" transform="translate(1507.568359 0)"/>
     <use xlink:href="#DejaVuSans-69" transform="translate(1546.777344 0)"/>
     <use xlink:href="#DejaVuSans-6f" transform="translate(1574.560547 0)"/>
     <use xlink:href="#DejaVuSans-6e" transform="translate(1635.742188 0)"/>
    </g>
   </g>
   <g id="legend_1">
    <g id="patch_13">
     <path d="M 249.718324 59.674375 
L 344.329261 59.674375 
Q 346.329261 59.674375 346.329261 57.674375 
L 346.329261 29.318125 
Q 346.329261 27.318125 344.329261 27.318125 
L 249.718324 27.318125 
Q 247.718324 27.318125 247.718324 29.318125 
L 247.718324 57.674375 
Q 247.718324 59.674375 249.718324 59.674375 
z
" style="fill: #ffffff; opacity: 0.8; stroke: #cccccc; stroke-linejoin: miter"/>
    </g>
    <g id="patch_14">
     <path d="M 251.718324 38.916563 
L 271.718324 38.916563 
L 271.718324 31.916563 
L 251.718324 31.916563 
z
" style="fill: #1f77b4; opacity: 0.8"/>
    </g>
    <g id="text_13">
     <!-- fixed -->
     <g transform="translate(279.718324 38.916563) scale(0.1 -0.1)">
      <use xlink:href="#DejaVuSans-66"/>
      <use xlink:href="#DejaVuSans-69" transform="translate(35.205078 0)"/>
      <use xlink:href="#DejaVuSans-78" transform="translate(62.988281 0)"/>
      <use xlink:href="#DejaVuSans-65" transform="translate(119.042969 0)"/>
      <use xlink:href="#DejaVuSans-64" transform="translate(180.566406 0)"/>
     </g>
    </g>
    <g id="patch_15">
     <path d="M 251.718324 53.594688 
L 271.718324 53.594688 
L 271.718324 46.594688 
L 251.718324 46.594688 
z
" style="fill: #ff7f0e; opacity: 0.8"/>
    </g>
    <g id="text_14">
     <!-- continuation -->
     <g transform="translate(279.718324 53.594688) scale(0.1 -0.1)">
      <use xlink:href="#DejaVuSans-63"/>
      <use xlink:href="#DejaVuSans-6f" transform="translate(54.980469 0)"/>
      <use xlink:href="#DejaVuSans-6e" transform="translate(116.162109 0)"/>
      <use xlink:href="#DejaVuSans-74" transform="translate(179.541016 0)"/>
      <use xlink:href="#DejaVuSans-69" transform="translate(218.75 0)"/>
      <use xlink:href="#DejaVuSans-6e" transform="translate(246.533203 0)"/>
      <use xlink:href="#DejaVuSans-75" transform="translate(309.912109 0)"/>
      <use xlink:href="#DejaVuSans-61" transform="translate(373.291016 0)"/>
      <use xlink:href="#DejaVuSans-74" transform="translate(434.570312 0)"/>
      <use xlink:href="#DejaVuSans-69" transform="translate(473.779297 0)"/>
      <use xlink:href="#DejaVuSans-6f" transform="translate(501.5625 0)"/>
      <use xlink:href="#DejaVuSans-6e" transform="translate(562.744141 0)"/>
     </g>
    </g>
   </g>
  </g>
  <g id="axes_2">
   <g id="patch_16">
    <path d="M 412.201989 299.518125 
L 716.565625 299.518125 
L 716.565625 22.318125 
L 412.201989 22.318125 
z
" style="fill: #ffffff"/>
   </g>
   <g id="patch_17">
    <path d="M 426.036699 299.518125 
L 462.657993 299.518125 
L 462.657993 193.315557 
L 426.036699 193.315557 
z
" clip-path="url(#p6bb9618265)" style="fill: #1f77b4; opacity: 0.8"/>
   </g>
   <g id="patch_18">
    <path d="M 527.762514 299.518125 
L 564.383807 299.518125 
L 564.383807 109.70928 
L 527.762514 109.70928 
z
" clip-path="url(#p6bb9618265)" style="fill: #1f77b4; opacity: 0.8"/>
   </g>
   <g id="patch_19">
    <path d="M 629.488328 299.518125 
L 666.109621 299.518125 
L 666.109621 194.821977 
L 629.488328 194.821977 
z
" clip-path="url(#p6bb9618265)" style="fill: #1f77b4; opacity: 0.8"/>
   </g>
   <g id="patch_20">
    <path d="M 462.657993 299.518125 
L 499.279286 299.518125 
L 499.279286 194.445372 
L 462.657993 194.445372 
z
" clip-path="url(#p6bb9618265)" style="fill: #ff7f0e; opacity: 0.8"/>
   </g>
   <g id="patch_21">
    <path d="M 564.383807 299.518125 
L 601.0051 299.518125 
L 601.0051 36.271335 
L 564.383807 36.271335 
z
" clip-path="url(#p6bb9618265)" style="fill: #ff7f0e; opacity: 0.8"/>
   </g>
   <g id="patch_22">
    <path d="M 666.109621 299.518125 
L 702.730914 299.518125 
L 702.730914 192.938952 
L 666.109621 192.938952 
z
" clip-path="url(#p6bb9618265)" style="fill: #ff7f0e; opacity: 0.8"/>
   </g>
   <g id="matplotlib.axis_3">
    <g id="xtick_4">
     <g id="line2d_22">
      <g>
       <use xlink:href="#mcfb07f4f74" x="462.657993" y="299.518125" style="stroke: #000000; stroke-width: 0.8"/>
      </g>
     </g>
     <g id="text_15">
      <!-- OC -->
      <g transform="translate(455.230649 314.116563) scale(0.1 -0.1)">
       <use xlink:href="#DejaVuSans-4f"/>
       <use xlink:href="#DejaVuSans-43" transform="translate(78.710938 0)"/>
      </g>
     </g>
    </g>
    <g id="xtick_5">
     <g id="line2d_23">
      <g>
       <use xlink:href="#mcfb07f4f74" x="564.383807" y="299.518125" style="stroke: #000000; stroke-width: 0.8"/>
      </g>
     </g>
     <g id="text_16">
      <!-- GD -->
      <g transform="translate(556.659588 314.116563) scale(0.1 -0.1)">
       <use xlink:href="#DejaVuSans-47"/>
       <use xlink:href="#DejaVuSans-44" transform="translate(77.490234 0)"/>
      </g>
     </g>
    </g>
    <g id="xtick_6">
     <g id="line2d_24">
      <g>
       <use xlink:href="#mcfb07f4f74" x="666.109621" y="299.518125" style="stroke: #000000; stroke-width: 0.8"/>
      </g>
     </g>
     <g id="text_17">
      <!-- MMA -->
      <g transform="translate(654.061184 314.116563) scale(0.1 -0.1)">
       <use xlink:href="#DejaVuSans-4d"/>
       <use xlink:href="#DejaVuSans-4d" transform="translate(86.279297 0)"/>
       <use xlink:href="#DejaVuSans-41" transform="translate(172.558594 0)"/>
      </g>
     </g>
    </g>
   </g>
   <g id="matplotlib.axis_4">
    <g id="ytick_8">
     <g id="line2d_25">
      <path d="M 412.201989 299.518125 
L 716.565625 299.518125 
" clip-path="url(#p6bb9618265)" style="fill: none; stroke: #b0b0b0; stroke-opacity: 0.3; stroke-width: 0.8; stroke-linecap: square"/>
     </g>
     <g id="line2d_26">
      <g>
       <use xlink:href="#m5f80e338b4" x="412.201989" y="299.518125" style="stroke: #000000; stroke-width: 0.8"/>
      </g>
     </g>
     <g id="text_18">
      <!-- 0.0 -->
      <g transform="translate(389.298864 303.317344) scale(0.1 -0.1)">
       <defs>
        <path id="DejaVuSans-2e" d="M 684 794 
L 1344 794 
L 1344 0 
L 684 0 
L 684 794 
z
" transform="scale(0.015625)"/>
       </defs>
       <use xlink:href="#DejaVuSans-30"/>
       <use xlink:href="#DejaVuSans-2e" transform="translate(63.623047 0)"/>
       <use xlink:href="#DejaVuSans-30" transform="translate(95.410156 0)"/>
      </g>
     </g>
    </g>
    <g id="ytick_9">
     <g id="line2d_27">
      <path d="M 412.201989 261.85764 
L 716.565625 261.85764 
" clip-path="url(#p6bb9618265)" style="fill: none; stroke: #b0b0b0; stroke-opacity: 0.3; stroke-width: 0.8; stroke-linecap: square"/>
     </g>
     <g id="line2d_28">
      <g>
       <use xlink:href="#m5f80e338b4" x="412.201989" y="261.85764" style="stroke: #000000; stroke-width: 0.8"/>
      </g>
     </g>
     <g id="text_19">
      <!-- 0.1 -->
      <g transform="translate(389.298864 265.656859) scale(0.1 -0.1)">
       <use xlink:href="#DejaVuSans-30"/>
       <use xlink:href="#DejaVuSans-2e" transform="translate(63.623047 0)"/>
       <use xlink:href="#DejaVuSans-31" transform="translate(95.410156 0)"/>
      </g>
     </g>
    </g>
    <g id="ytick_10">
     <g id="line2d_29">
      <path d="M 412.201989 224.197155 
L 716.565625 224.197155 
" clip-path="url(#p6bb9618265)" style="fill: none; stroke: #b0b0b0; stroke-opacity: 0.3; stroke-width: 0.8; stroke-linecap: square"/>
     </g>
     <g id="line2d_30">
      <g>
       <use xlink:href="#m5f80e338b4" x="412.201989" y="224.197155" style="stroke: #000000; stroke-width: 0.8"/>
      </g>
     </g>
     <g id="text_20">
      <!-- 0.2 -->
      <g transform="translate(389.298864 227.996374) scale(0.1 -0.1)">
       <use xlink:href="#DejaVuSans-30"/>
       <use xlink:href="#DejaVuSans-2e" transform="translate(63.623047 0)"/>
       <use xlink:href="#DejaVuSans-32" transform="translate(95.410156 0)"/>
      </g>
     </g>
    </g>
    <g id="ytick_11">
     <g id="line2d_31">
      <path d="M 412.201989 186.53667 
L 716.565625 186.53667 
" clip-path="url(#p6bb9618265)" style="fill: none; stroke: #b0b0b0; stroke-opacity: 0.3; stroke-width: 0.8; stroke-linecap: square"/>
     </g>
     <g id="line2d_32">
      <g>
       <use xlink:href="#m5f80e338b4" x="412.201989" y="186.53667" style="stroke: #000000; stroke-width: 0.8"/>
      </g>
     </g>
     <g id="text_21">
      <!-- 0.3 -->
      <g transform="translate(389.298864 190.335889) scale(0.1 -0.1)">
       <use xlink:href="#DejaVuSans-30"/>
       <use xlink:href="#DejaVuSans-2e" transform="translate(63.623047 0)"/>
       <use xlink:href="#DejaVuSans-33" transform="translate(95.410156 0)"/>
      </g>
     </g>
    </g>
    <g id="ytick_12">
     <g id="line2d_33">
      <path d="M 412.201989 148.876185 
L 716.565625 148.876185 
" clip-path="url(#p6bb9618265)" style="fill: none; stroke: #b0b0b0; stroke-opacity: 0.3; stroke-width: 0.8; stroke-linecap: square"/>
     </g>
     <g id="line2d_34">
      <g>
       <use xlink:href="#m5f80e338b4" x="412.201989" y="148.876185" style="stroke: #000000; stroke-width: 0.8"/>
      </g>
     </g>
     <g id="text_22">
      <!-- 0.4 -->
      <g transform="translate(389.298864 152.675404) scale(0.1 -0.1)">
       <use xlink:href="#DejaVuSans-30"/>
       <use xlink:href="#DejaVuSans-2e" transform="translate(63.623047 0)"/>
       <use xlink:href="#DejaVuSans-34" transform="translate(95.410156 0)"/>
      </g>
     </g>
    </g>
    <g id="ytick_13">
     <g id="line2d_35">
      <path d="M 412.201989 111.2157 
L 716.565625 111.2157 
" clip-path="url(#p6bb9618265)" style="fill: none; stroke: #b0b0b0; stroke-opacity: 0.3; stroke-width: 0.8; stroke-linecap: square"/>
     </g>
     <g id="line2d_36">
      <g>
       <use xlink:href="#m5f80e338b4" x="412.201989" y="111.2157" style="stroke: #000000; stroke-width: 0.8"/>
      </g>
     </g>
     <g id="text_23">
      <!-- 0.5 -->
      <g transform="translate(389.298864 115.014919) scale(0.1 -0.1)">
       <use xlink:href="#DejaVuSans-30"/>
       <use xlink:href="#DejaVuSans-2e" transform="translate(63.623047 0)"/>
       <use xlink:href="#DejaVuSans-35" transform="translate(95.410156 0)"/>
      </g>
     </g>
    </g>
    <g id="ytick_14">
     <g id="line2d_37">
      <path d="M 412.201989 73.555215 
L 716.565625 73.555215 
" clip-path="url(#p6bb9618265)" style="fill: none; stroke: #b0b0b0; stroke-opacity: 0.3; stroke-width: 0.8; stroke-linecap: square"/>
     </g>
     <g id="line2d_38">
      <g>
       <use xlink:href="#m5f80e338b4" x="412.201989" y="73.555215" style="stroke: #000000; stroke-width: 0.8"/>
      </g>
     </g>
     <g id="text_24">
      <!-- 0.6 -->
      <g transform="translate(389.298864 77.354434) scale(0.1 -0.1)">
       <use xlink:href="#DejaVuSans-30"/>
       <use xlink:href="#DejaVuSans-2e" transform="translate(63.623047 0)"/>
       <use xlink:href="#DejaVuSans-36" transform="translate(95.410156 0)"/>
      </g>
     </g>
    </g>
    <g id="ytick_15">
     <g id="line2d_39">
      <path d="M 412.201989 35.89473 
L 716.565625 35.89473 
" clip-path="url(#p6bb9618265)" style="fill: none; stroke: #b0b0b0; stroke-opacity: 0.3; stroke-width: 0.8; stroke-linecap: square"/>
     </g>
     <g id="line2d_40">
      <g>
       <use xlink:href="#m5f80e338b4" x="412.201989" y="35.89473" style="stroke: #000000; stroke-width: 0.8"/>
      </g>
     </g>
     <g id="text_25">
      <!-- 0.7 -->
      <g transform="translate(389.298864 39.693949) scale(0.1 -0.1)">
       <defs>
        <path id="DejaVuSans-37" d="M 525 4666 
L 3525 4666 
L 3525 4397 
L 1831 0 
L 1172 0 
L 2766 4134 
L 525 4134 
L 525 4666 
z
" transform="scale(0.015625)"/>
       </defs>
       <use xlink:href="#DejaVuSans-30"/>
       <use xlink:href="#DejaVuSans-2e" transform="translate(63.623047 0)"/>
       <use xlink:href="#DejaVuSans-37" transform="translate(95.410156 0)"/>
      </g>
     </g>
    </g>
    <g id="text_26">
     <!-- Grayness -->
     <g transform="translate(383.219176 184.325938) rotate(-90) scale(0.1 -0.1)">
      <defs>
       <path id="DejaVuSans-72" d="M 2631 2963 
Q 2534 3019 2420 3045 
Q 2306 3072 2169 3072 
Q 1681 3072 1420 2755 
Q 1159 2438 1159 1844 
L 1159 0 
L 581 0 
L 581 3500 
L 1159 3500 
L 1159 2956 
Q 1341 3275 1631 3429 
Q 1922 3584 2338 3584 
Q 2397 3584 2469 3576 
Q 2541 3569 2628 3553 
L 2631 2963 
z
" transform="scale(0.015625)"/>
       <path id="DejaVuSans-79" d="M 2059 -325 
Q 1816 -950 1584 -1140 
Q 1353 -1331 966 -1331 
L 506 -1331 
L 506 -850 
L 844 -850 
Q 1081 -850 1212 -737 
Q 1344 -625 1503 -206 
L 1606 56 
L 191 3500 
L 800 3500 
L 1894 763 
L 2988 3500 
L 3597 3500 
L 2059 -325 
z
" transform="scale(0.015625)"/>
      </defs>
      <use xlink:href="#DejaVuSans-47"/>
      <use xlink:href="#DejaVuSans-72" transform="translate(77.490234 0)"/>
      <use xlink:href="#DejaVuSans-61" transform="translate(118.603516 0)"/>
      <use xlink:href="#DejaVuSans-79" transform="translate(179.882812 0)"/>
      <use xlink:href="#DejaVuSans-6e" transform="translate(239.0625 0)"/>
      <use xlink:href="#DejaVuSans-65" transform="translate(302.441406 0)"/>
      <use xlink:href="#DejaVuSans-73" transform="translate(363.964844 0)"/>
      <use xlink:href="#DejaVuSans-73" transform="translate(416.064453 0)"/>
     </g>
    </g>
   </g>
   <g id="LineCollection_3">
    <path d="M 444.347346 194.821977 
L 444.347346 191.809138 
" clip-path="url(#p6bb9618265)" style="fill: none; stroke: #000000; stroke-width: 1.5"/>
    <path d="M 546.07316 112.722119 
L 546.07316 106.696442 
" clip-path="url(#p6bb9618265)" style="fill: none; stroke: #000000; stroke-width: 1.5"/>
    <path d="M 647.798975 196.705001 
L 647.798975 192.938952 
" clip-path="url(#p6bb9618265)" style="fill: none; stroke: #000000; stroke-width: 1.5"/>
   </g>
   <g id="line2d_41">
    <g clip-path="url(#p6bb9618265)">
     <use xlink:href="#mc3dff995cb" x="444.347346" y="194.821977" style="fill: #1f77b4; stroke: #000000"/>
     <use xlink:href="#mc3dff995cb" x="546.07316" y="112.722119" style="fill: #1f77b4; stroke: #000000"/>
     <use xlink:href="#mc3dff995cb" x="647.798975" y="196.705001" style="fill: #1f77b4; stroke: #000000"/>
    </g>
   </g>
   <g id="line2d_42">
    <g clip-path="url(#p6bb9618265)">
     <use xlink:href="#mc3dff995cb" x="444.347346" y="191.809138" style="fill: #1f77b4; stroke: #000000"/>
     <use xlink:href="#mc3dff995cb" x="546.07316" y="106.696442" style="fill: #1f77b4; stroke: #000000"/>
     <use xlink:href="#mc3dff995cb" x="647.798975" y="192.938952" style="fill: #1f77b4; stroke: #000000"/>
    </g>
   </g>
   <g id="LineCollection_4">
    <path d="M 480.968639 194.821977 
L 480.968639 194.068767 
" clip-path="url(#p6bb9618265)" style="fill: none; stroke: #000000; stroke-width: 1.5"/>
    <path d="M 582.694453 37.024544 
L 582.694453 35.518125 
" clip-path="url(#p6bb9618265)" style="fill: none; stroke: #000000; stroke-width: 1.5"/>
    <path d="M 684.420268 192.938952 
L 684.420268 192.938952 
" clip-path="url(#p6bb9618265)" style="fill: none; stroke: #000000; stroke-width: 1.5"/>
   </g>
   <g id="line2d_43">
    <g clip-path="url(#p6bb9618265)">
     <use xlink:href="#mc3dff995cb" x="480.968639" y="194.821977" style="fill: #1f77b4; stroke: #000000"/>
     <use xlink:href="#mc3dff995cb" x="582.694453" y="37.024544" style="fill: #1f77b4; stroke: #000000"/>
     <use xlink:href="#mc3dff995cb" x="684.420268" y="192.938952" style="fill: #1f77b4; stroke: #000000"/>
    </g>
   </g>
   <g id="line2d_44">
    <g clip-path="url(#p6bb9618265)">
     <use xlink:href="#mc3dff995cb" x="480.968639" y="194.068767" style="fill: #1f77b4; stroke: #000000"/>
     <use xlink:href="#mc3dff995cb" x="582.694453" y="35.518125" style="fill: #1f77b4; stroke: #000000"/>
     <use xlink:href="#mc3dff995cb" x="684.420268" y="192.938952" style="fill: #1f77b4; stroke: #000000"/>
    </g>
   </g>
   <g id="patch_23">
    <path d="M 412.201989 299.518125 
L 412.201989 22.318125 
" style="fill: none; stroke: #000000; stroke-width: 0.8; stroke-linejoin: miter; stroke-linecap: square"/>
   </g>
   <g id="patch_24">
    <path d="M 716.565625 299.518125 
L 716.565625 22.318125 
" style="fill: none; stroke: #000000; stroke-width: 0.8; stroke-linejoin: miter; stroke-linecap: square"/>
   </g>
   <g id="patch_25">
    <path d="M 412.201989 299.518125 
L 716.565625 299.518125 
" style="fill: none; stroke: #000000; stroke-width: 0.8; stroke-linejoin: miter; stroke-linecap: square"/>
   </g>
   <g id="patch_26">
    <path d="M 412.201989 22.318125 
L 716.565625 22.318125 
" style="fill: none; stroke: #000000; stroke-width: 0.8; stroke-linejoin: miter; stroke-linecap: square"/>
   </g>
   <g id="text_27">
    <!-- Grayness: fixed vs continuation -->
    <g transform="translate(469.665369 16.318125) scale(0.12 -0.12)">
     <use xlink:href="#DejaVuSans-47"/>
     <use xlink:href="#DejaVuSans-72" transform="translate(77.490234 0)"/>
     <use xlink:href="#DejaVuSans-61" transform="translate(118.603516 0)"/>
     <use xlink:href="#DejaVuSans-79" transform="translate(179.882812 0)"/>
     <use xlink:href="#DejaVuSans-6e" transform="translate(239.0625 0)"/>
     <use xlink:href="#DejaVuSans-65" transform="translate(302.441406 0)"/>
     <use xlink:href="#DejaVuSans-73" transform="translate(363.964844 0)"/>
     <use xlink:href="#DejaVuSans-73" transform="translate(416.064453 0)"/>
     <use xlink:href="#DejaVuSans-3a" transform="translate(468.164062 0)"/>
     <use xlink:href="#DejaVuSans-20" transform="translate(501.855469 0)"/>
     <use xlink:href="#DejaVuSans-66" transform="translate(533.642578 0)"/>
     <use xlink:href="#DejaVuSans-69" transform="translate(568.847656 0)"/>
     <use xlink:href="#DejaVuSans-78" transform="translate(596.630859 0)"/>
     <use xlink:href="#DejaVuSans-65" transform="translate(652.685547 0)"/>
     <use xlink:href="#DejaVuSans-64" transform="translate(714.208984 0)"/>
     <use xlink:href="#DejaVuSans-20" transform="translate(777.685547 0)"/>
     <use xlink:href="#DejaVuSans-76" transform="translate(809.472656 0)"/>
     <use xlink:href="#DejaVuSans-73" transform="translate(868.652344 0)"/>
     <use xlink:href="#DejaVuSans-20" transform="translate(920.751953 0)"/>
     <use xlink:href="#DejaVuSans-63" transform="translate(952.539062 0)"/>
     <use xlink:href="#DejaVuSans-6f" transform="translate(1007.519531 0)"/>
     <use xlink:href="#DejaVuSans-6e" transform="translate(1068.701172 0)"/>
     <use xlink:href="#DejaVuSans-74" transform="translate(1132.080078 0)"/>
     <use xlink:href="#DejaVuSans-69" transform="translate(1171.289062 0)"/>
     <use xlink:href="#DejaVuSans-6e" transform="translate(1199.072266 0)"/>
     <use xlink:href="#DejaVuSans-75" transform="translate(1262.451172 0)"/>
     <use xlink:href="#DejaVuSans-61" transform="translate(1325.830078 0)"/>
     <use xlink:href="#DejaVuSans-74" transform="translate(1387.109375 0)"/>
     <use xlink:href="#DejaVuSans-69" transform="translate(1426.318359 0)"/>
     <use xlink:href="#DejaVuSans-6f" transform="translate(1454.101562 0)"/>
     <use xlink:href="#DejaVuSans-6e" transform="translate(1515.283203 0)"/>
    </g>
   </g>
   <g id="legend_2">
    <g id="patch_27">
     <path d="M 614.954687 59.674375 
L 709.565625 59.674375 
Q 711.565625 59.674375 711.565625 57.674375 
L 711.565625 29.318125 
Q 711.565625 27.318125 709.565625 27.318125 
L 614.954687 27.318125 
Q 612.954687 27.318125 612.954687 29.318125 
L 612.954687 57.674375 
Q 612.954687 59.674375 614.954687 59.674375 
z
" style="fill: #ffffff; opacity: 0.8; stroke: #cccccc; stroke-linejoin: miter"/>
    </g>
    <g id="patch_28">
     <path d="M 616.954687 38.916563 
L 636.954687 38.916563 
L 636.954687 31.916563 
L 616.954687 31.916563 
z
" style="fill: #1f77b4; opacity: 0.8"/>
    </g>
    <g id="text_28">
     <!-- fixed -->
     <g transform="translate(644.954687 38.916563) scale(0.1 -0.1)">
      <use xlink:href="#DejaVuSans-66"/>
      <use xlink:href="#DejaVuSans-69" transform="translate(35.205078 0)"/>
      <use xlink:href="#DejaVuSans-78" transform="translate(62.988281 0)"/>
      <use xlink:href="#DejaVuSans-65" transform="translate(119.042969 0)"/>
      <use xlink:href="#DejaVuSans-64" transform="translate(180.566406 0)"/>
     </g>
    </g>
    <g id="patch_29">
     <path d="M 616.954687 53.594688 
L 636.954687 53.594688 
L 636.954687 46.594688 
L 616.954687 46.594688 
z
" style="fill: #ff7f0e; opacity: 0.8"/>
    </g>
    <g id="text_29">
     <!-- continuation -->
     <g transform="translate(644.954687 53.594688) scale(0.1 -0.1)">
      <use xlink:href="#DejaVuSans-63"/>
      <use xlink:href="#DejaVuSans-6f" transform="translate(54.980469 0)"/>
      <use xlink:href="#DejaVuSans-6e" transform="translate(116.162109 0)"/>
      <use xlink:href="#DejaVuSans-74" transform="translate(179.541016 0)"/>
      <use xlink:href="#DejaVuSans-69" transform="translate(218.75 0)"/>
      <use xlink:href="#DejaVuSans-6e" transform="translate(246.533203 0)"/>
      <use xlink:href="#DejaVuSans-75" transform="translate(309.912109 0)"/>
      <use xlink:href="#DejaVuSans-61" transform="translate(373.291016 0)"/>
      <use xlink:href="#DejaVuSans-74" transform="translate(434.570312 0)"/>
      <use xlink:href="#DejaVuSans-69" transform="translate(473.779297 0)"/>
      <use xlink:href="#DejaVuSans-6f" transform="translate(501.5625 0)"/>
      <use xlink:href="#DejaVuSans-6e" transform="translate(562.744141 0)"/>
     </g>
    </g>
   </g>
  </g>
 </g>
 <defs>
  <clipPath id="p9be48a3b03">
   <rect x="46.965625" y="22.318125" width="304.363636" height="277.2"/>
  </clipPath>
  <clipPath id="p6bb9618265">
   <rect x="412.201989" y="22.318125" width="304.363636" height="277.2"/>
  </clipPath>
 </defs>
</svg>
