<?xml version="1.0" encoding="utf-8" standalone="no"?>
<!DOCTYPE svg PUBLIC "-//W3C//DTD SVG 1.1//EN"
  "http://www.w3.org/Graphics/SVG/1.1/DTD/svg11.dtd">
<svg xmlns:xlink="http://www.w3.org/1999/xlink" width="612.165625pt" height="351.394375pt" viewBox="0 0 612.165625 351.394375" xmlns="http://www.w3.org/2000/svg" version="1.1">
 <metadata>
  <rdf:RDF xmlns:dc="http://purl.org/dc/elements/1.1/" xmlns:cc="http://creativecommons.org/ns#" xmlns:rdf="http://www.w3.org/1999/02/22-rdf-syntax-ns#">
   <cc:Work>
    <dc:type rdf:resource="http://purl.org/dc/dcmitype/StillImage"/>
    <dc:date>2026-06-26T11:17:46.225451</dc:date>
    <dc:format>image/svg+xml</dc:format>
    <dc:creator>
     <cc:Agent>
      <dc:title>Matplotlib v3.10.8, https://matplotlib.org/</dc:title>
     </cc:Agent>
    </dc:creator>
   </cc:Work>
  </rdf:RDF>
 </metadata>
 <defs>
  <style type="text/css">*{stroke-linejoin: round; stroke-linecap: butt}</style>
 </defs>
 <g id="figure_1">
  <g id="patch_1">
   <path d="M 0 351.394375 
L 612.165625 351.394375 
L 612.165625 0 
L 0 0 
z
" style="fill: #ffffff"/>
  </g>
  <g id="axes_1">
   <g id="patch_2">
    <path d="M 46.965625 327.238125 
L 604.965625 327.238125 
L 604.965625 22.318125 
L 46.965625 22.318125 
z
" style="fill: #ffffff"/>
   </g>
   <g id="patch_3">
    <path d="M 72.329261 327.238125 
L 107.927347 327.238125 
L 107.927347 140.141387 
L 72.329261 140.141387 
z
" clip-path="url(#pbb340f3afc)" style="fill: #1f77b4; opacity: 0.85"/>
   </g>
   <g id="patch_4">
    <path d="M 205.822084 327.238125 
L 241.42017 327.238125 
L 241.42017 155.918651 
L 205.822084 155.918651 
z
" clip-path="url(#pbb340f3afc)" style="fill: #1f77b4; opacity: 0.85"/>
   </g>
   <g id="patch_5">
    <path d="M 339.314907 327.238125 
L 374.912993 327.238125 
L 374.912993 302.763137 
L 339.314907 302.763137 
z
" clip-path="url(#pbb340f3afc)" style="fill: #1f77b4; opacity: 0.85"/>
   </g>
   <g id="patch_6">
    <path d="M 472.80773 327.238125 
L 508.405816 327.238125 
L 508.405816 146.668534 
L 472.80773 146.668534 
z
" clip-path="url(#pbb340f3afc)" style="fill: #1f77b4; opacity: 0.85"/>
   </g>
   <g id="patch_7">
    <path d="M 107.927347 327.238125 
L 143.525434 327.238125 
L 143.525434 54.137423 
L 107.927347 54.137423 
z
" clip-path="url(#pbb340f3afc)" style="fill: #d62728; opacity: 0.85"/>
   </g>
   <g id="patch_8">
    <path d="M 241.42017 327.238125 
L 277.018257 327.238125 
L 277.018257 74.429087 
L 241.42017 74.429087 
z
" clip-path="url(#pbb340f3afc)" style="fill: #d62728; opacity: 0.85"/>
   </g>
   <g id="patch_9">
    <path d="M 374.912993 327.238125 
L 410.51108 327.238125 
L 410.51108 292.40188 
L 374.912993 292.40188 
z
" clip-path="url(#pbb340f3afc)" style="fill: #d62728; opacity: 0.85"/>
   </g>
   <g id="patch_10">
    <path d="M 508.405816 327.238125 
L 544.003903 327.238125 
L 544.003903 46.825676 
L 508.405816 46.825676 
z
" clip-path="url(#pbb340f3afc)" style="fill: #d62728; opacity: 0.85"/>
   </g>
   <g id="patch_11">
    <path d="M 143.525434 327.238125 
L 179.12352 327.238125 
L 179.12352 142.643036 
L 143.525434 142.643036 
z
" clip-path="url(#pbb340f3afc)" style="fill: #2ca02c; opacity: 0.85"/>
   </g>
   <g id="patch_12">
    <path d="M 277.018257 327.238125 
L 312.616343 327.238125 
L 312.616343 156.436578 
L 277.018257 156.436578 
z
" clip-path="url(#pbb340f3afc)" style="fill: #2ca02c; opacity: 0.85"/>
   </g>
   <g id="patch_13">
    <path d="M 410.51108 327.238125 
L 446.109166 327.238125 
L 446.109166 302.663361 
L 410.51108 302.663361 
z
" clip-path="url(#pbb340f3afc)" style="fill: #2ca02c; opacity: 0.85"/>
   </g>
   <g id="patch_14">
    <path d="M 544.003903 327.238125 
L 579.601989 327.238125 
L 579.601989 151.824218 
L 544.003903 151.824218 
z
" clip-path="url(#pbb340f3afc)" style="fill: #2ca02c; opacity: 0.85"/>
   </g>
   <g id="matplotlib.axis_1">
    <g id="xtick_1">
     <g id="line2d_1">
      <defs>
       <path id="ma2ab4ed376" d="M 0 0 
L 0 3.5 
" style="stroke: #000000; stroke-width: 0.8"/>
      </defs>
      <g>
       <use xlink:href="#ma2ab4ed376" x="125.726391" y="327.238125" style="stroke: #000000; stroke-width: 0.8"/>
      </g>
     </g>
     <g id="text_1">
      <!-- mbb -->
      <g transform="translate(114.507641 341.836562) scale(0.1 -0.1)">
       <defs>
        <path id="DejaVuSans-6d" d="M 3328 2828 
Q 3544 3216 3844 3400 
Q 4144 3584 4550 3584 
Q 5097 3584 5394 3201 
Q 5691 2819 5691 2113 
L 5691 0 
L 5113 0 
L 5113 2094 
Q 5113 2597 4934 2840 
Q 4756 3084 4391 3084 
Q 3944 3084 3684 2787 
Q 3425 2491 3425 1978 
L 3425 0 
L 2847 0 
L 2847 2094 
Q 2847 2600 2669 2842 
Q 2491 3084 2119 3084 
Q 1678 3084 1418 2786 
Q 1159 2488 1159 1978 
L 1159 0 
L 581 0 
L 581 3500 
L 1159 3500 
L 1159 2956 
Q 1356 3278 1631 3431 
Q 1906 3584 2284 3584 
Q 2666 3584 2933 3390 
Q 3200 3197 3328 2828 
z
" transform="scale(0.015625)"/>
        <path id="DejaVuSans-62" d="M 3116 1747 
Q 3116 2381 2855 2742 
Q 2594 3103 2138 3103 
Q 1681 3103 1420 2742 
Q 1159 2381 1159 1747 
Q 1159 1113 1420 752 
Q 1681 391 2138 391 
Q 2594 391 2855 752 
Q 3116 1113 3116 1747 
z
M 1159 2969 
Q 1341 3281 1617 3432 
Q 1894 3584 2278 3584 
Q 2916 3584 3314 3078 
Q 3713 2572 3713 1747 
Q 3713 922 3314 415 
Q 2916 -91 2278 -91 
Q 1894 -91 1617 61 
Q 1341 213 1159 525 
L 1159 0 
L 581 0 
L 581 4863 
L 1159 4863 
L 1159 2969 
z
" transform="scale(0.015625)"/>
       </defs>
       <use xlink:href="#DejaVuSans-6d"/>
       <use xlink:href="#DejaVuSans-62" transform="translate(97.412109 0)"/>
       <use xlink:href="#DejaVuSans-62" transform="translate(160.888672 0)"/>
      </g>
     </g>
    </g>
    <g id="xtick_2">
     <g id="line2d_2">
      <g>
       <use xlink:href="#ma2ab4ed376" x="259.219214" y="327.238125" style="stroke: #000000; stroke-width: 0.8"/>
      </g>
     </g>
     <g id="text_2">
      <!-- cantilever -->
      <g transform="translate(234.330932 341.836562) scale(0.1 -0.1)">
       <defs>
        <path id="DejaVuSans-63" d="M 3122 3366 
L 3122 2828 
Q 2878 2963 2633 3030 
Q 2388 3097 2138 3097 
Q 1578 3097 1268 2742 
Q 959 2388 959 1747 
Q 959 1106 1268 751 
Q 1578 397 2138 397 
Q 2388 397 2633 464 
Q 2878 531 3122 666 
L 3122 134 
Q 2881 22 2623 -34 
Q 2366 -91 2075 -91 
Q 1284 -91 818 406 
Q 353 903 353 1747 
Q 353 2603 823 3093 
Q 1294 3584 2113 3584 
Q 2378 3584 2631 3529 
Q 2884 3475 3122 3366 
z
" transform="scale(0.015625)"/>
        <path id="DejaVuSans-61" d="M 2194 1759 
Q 1497 1759 1228 1600 
Q 959 1441 959 1056 
Q 959 750 1161 570 
Q 1363 391 1709 391 
Q 2188 391 2477 730 
Q 2766 1069 2766 1631 
L 2766 1759 
L 2194 1759 
z
M 3341 1997 
L 3341 0 
L 2766 0 
L 2766 531 
Q 2569 213 2275 61 
Q 1981 -91 1556 -91 
Q 1019 -91 701 211 
Q 384 513 384 1019 
Q 384 1609 779 1909 
Q 1175 2209 1959 2209 
L 2766 2209 
L 2766 2266 
Q 2766 2663 2505 2880 
Q 2244 3097 1772 3097 
Q 1472 3097 1187 3025 
Q 903 2953 641 2809 
L 641 3341 
Q 956 3463 1253 3523 
Q 1550 3584 1831 3584 
Q 2591 3584 2966 3190 
Q 3341 2797 3341 1997 
z
" transform="scale(0.015625)"/>
        <path id="DejaVuSans-6e" d="M 3513 2113 
L 3513 0 
L 2938 0 
L 2938 2094 
Q 2938 2591 2744 2837 
Q 2550 3084 2163 3084 
Q 1697 3084 1428 2787 
Q 1159 2491 1159 1978 
L 1159 0 
L 581 0 
L 581 3500 
L 1159 3500 
L 1159 2956 
Q 1366 3272 1645 3428 
Q 1925 3584 2291 3584 
Q 2894 3584 3203 3211 
Q 3513 2838 3513 2113 
z
" transform="scale(0.015625)"/>
        <path id="DejaVuSans-74" d="M 1172 4494 
L 1172 3500 
L 2356 3500 
L 2356 3053 
L 1172 3053 
L 1172 1153 
Q 1172 725 1289 603 
Q 1406 481 1766 481 
L 2356 481 
L 2356 0 
L 1766 0 
Q 1100 0 847 248 
Q 594 497 594 1153 
L 594 3053 
L 172 3053 
L 172 3500 
L 594 3500 
L 594 4494 
L 1172 4494 
z
" transform="scale(0.015625)"/>
        <path id="DejaVuSans-69" d="M 603 3500 
L 1178 3500 
L 1178 0 
L 603 0 
L 603 3500 
z
M 603 4863 
L 1178 4863 
L 1178 4134 
L 603 4134 
L 603 4863 
z
" transform="scale(0.015625)"/>
        <path id="DejaVuSans-6c" d="M 603 4863 
L 1178 4863 
L 1178 0 
L 603 0 
L 603 4863 
z
" transform="scale(0.015625)"/>
        <path id="DejaVuSans-65" d="M 3597 1894 
L 3597 1613 
L 953 1613 
Q 991 1019 1311 708 
Q 1631 397 2203 397 
Q 2534 397 2845 478 
Q 3156 559 3463 722 
L 3463 178 
Q 3153 47 2828 -22 
Q 2503 -91 2169 -91 
Q 1331 -91 842 396 
Q 353 884 353 1716 
Q 353 2575 817 3079 
Q 1281 3584 2069 3584 
Q 2775 3584 3186 3129 
Q 3597 2675 3597 1894 
z
M 3022 2063 
Q 3016 2534 2758 2815 
Q 2500 3097 2075 3097 
Q 1594 3097 1305 2825 
Q 1016 2553 972 2059 
L 3022 2063 
z
" transform="scale(0.015625)"/>
        <path id="DejaVuSans-76" d="M 191 3500 
L 800 3500 
L 1894 563 
L 2988 3500 
L 3597 3500 
L 2284 0 
L 1503 0 
L 191 3500 
z
" transform="scale(0.015625)"/>
        <path id="DejaVuSans-72" d="M 2631 2963 
Q 2534 3019 2420 3045 
Q 2306 3072 2169 3072 
Q 1681 3072 1420 2755 
Q 1159 2438 1159 1844 
L 1159 0 
L 581 0 
L 581 3500 
L 1159 3500 
L 1159 2956 
Q 1341 3275 1631 3429 
Q 1922 3584 2338 3584 
Q 2397 3584 2469 3576 
Q 2541 3569 2628 3553 
L 2631 2963 
z
" transform="scale(0.015625)"/>
       </defs>
       <use xlink:href="#DejaVuSans-63"/>
       <use xlink:href="#DejaVuSans-61" transform="translate(54.980469 0)"/>
       <use xlink:href="#DejaVuSans-6e" transform="translate(116.259766 0)"/>
       <use xlink:href="#DejaVuSans-74" transform="translate(179.638672 0)"/>
       <use xlink:href="#DejaVuSans-69" transform="translate(218.847656 0)"/>
       <use xlink:href="#DejaVuSans-6c" transform="translate(246.630859 0)"/>
       <use xlink:href="#DejaVuSans-65" transform="translate(274.414062 0)"/>
       <use xlink:href="#DejaVuSans-76" transform="translate(335.9375 0)"/>
       <use xlink:href="#DejaVuSans-65" transform="translate(395.117188 0)"/>
       <use xlink:href="#DejaVuSans-72" transform="translate(456.640625 0)"/>
      </g>
     </g>
    </g>
    <g id="xtick_3">
     <g id="line2d_3">
      <g>
       <use xlink:href="#ma2ab4ed376" x="392.712036" y="327.238125" style="stroke: #000000; stroke-width: 0.8"/>
      </g>
     </g>
     <g id="text_3">
      <!-- bridge -->
      <g transform="translate(376.668286 341.836562) scale(0.1 -0.1)">
       <defs>
        <path id="DejaVuSans-64" d="M 2906 2969 
L 2906 4863 
L 3481 4863 
L 3481 0 
L 2906 0 
L 2906 525 
Q 2725 213 2448 61 
Q 2172 -91 1784 -91 
Q 1150 -91 751 415 
Q 353 922 353 1747 
Q 353 2572 751 3078 
Q 1150 3584 1784 3584 
Q 2172 3584 2448 3432 
Q 2725 3281 2906 2969 
z
M 947 1747 
Q 947 1113 1208 752 
Q 1469 391 1925 391 
Q 2381 391 2643 752 
Q 2906 1113 2906 1747 
Q 2906 2381 2643 2742 
Q 2381 3103 1925 3103 
Q 1469 3103 1208 2742 
Q 947 2381 947 1747 
z
" transform="scale(0.015625)"/>
        <path id="DejaVuSans-67" d="M 2906 1791 
Q 2906 2416 2648 2759 
Q 2391 3103 1925 3103 
Q 1463 3103 1205 2759 
Q 947 2416 947 1791 
Q 947 1169 1205 825 
Q 1463 481 1925 481 
Q 2391 481 2648 825 
Q 2906 1169 2906 1791 
z
M 3481 434 
Q 3481 -459 3084 -895 
Q 2688 -1331 1869 -1331 
Q 1566 -1331 1297 -1286 
Q 1028 -1241 775 -1147 
L 775 -588 
Q 1028 -725 1275 -790 
Q 1522 -856 1778 -856 
Q 2344 -856 2625 -561 
Q 2906 -266 2906 331 
L 2906 616 
Q 2728 306 2450 153 
Q 2172 0 1784 0 
Q 1141 0 747 490 
Q 353 981 353 1791 
Q 353 2603 747 3093 
Q 1141 3584 1784 3584 
Q 2172 3584 2450 3431 
Q 2728 3278 2906 2969 
L 2906 3500 
L 3481 3500 
L 3481 434 
z
" transform="scale(0.015625)"/>
       </defs>
       <use xlink:href="#DejaVuSans-62"/>
       <use xlink:href="#DejaVuSans-72" transform="translate(63.476562 0)"/>
       <use xlink:href="#DejaVuSans-69" transform="translate(104.589844 0)"/>
       <use xlink:href="#DejaVuSans-64" transform="translate(132.373047 0)"/>
       <use xlink:href="#DejaVuSans-67" transform="translate(195.849609 0)"/>
       <use xlink:href="#DejaVuSans-65" transform="translate(259.326172 0)"/>
      </g>
     </g>
    </g>
    <g id="xtick_4">
     <g id="line2d_4">
      <g>
       <use xlink:href="#ma2ab4ed376" x="526.204859" y="327.238125" style="stroke: #000000; stroke-width: 0.8"/>
      </g>
     </g>
     <g id="text_4">
      <!-- tip_cantilever -->
      <g transform="translate(492.293141 341.836562) scale(0.1 -0.1)">
       <defs>
        <path id="DejaVuSans-70" d="M 1159 525 
L 1159 -1331 
L 581 -1331 
L 581 3500 
L 1159 3500 
L 1159 2969 
Q 1341 3281 1617 3432 
Q 1894 3584 2278 3584 
Q 2916 3584 3314 3078 
Q 3713 2572 3713 1747 
Q 3713 922 3314 415 
Q 2916 -91 2278 -91 
Q 1894 -91 1617 61 
Q 1341 213 1159 525 
z
M 3116 1747 
Q 3116 2381 2855 2742 
Q 2594 3103 2138 3103 
Q 1681 3103 1420 2742 
Q 1159 2381 1159 1747 
Q 1159 1113 1420 752 
Q 1681 391 2138 391 
Q 2594 391 2855 752 
Q 3116 1113 3116 1747 
z
" transform="scale(0.015625)"/>
        <path id="DejaVuSans-5f" d="M 3263 -1063 
L 3263 -1509 
L -63 -1509 
L -63 -1063 
L 3263 -1063 
z
" transform="scale(0.015625)"/>
       </defs>
       <use xlink:href="#DejaVuSans-74"/>
       <use xlink:href="#DejaVuSans-69" transform="translate(39.208984 0)"/>
       <use xlink:href="#DejaVuSans-70" transform="translate(66.992188 0)"/>
       <use xlink:href="#DejaVuSans-5f" transform="translate(130.46875 0)"/>
       <use xlink:href="#DejaVuSans-63" transform="translate(180.46875 0)"/>
       <use xlink:href="#DejaVuSans-61" transform="translate(235.449219 0)"/>
       <use xlink:href="#DejaVuSans-6e" transform="translate(296.728516 0)"/>
       <use xlink:href="#DejaVuSans-74" transform="translate(360.107422 0)"/>
       <use xlink:href="#DejaVuSans-69" transform="translate(399.316406 0)"/>
       <use xlink:href="#DejaVuSans-6c" transform="translate(427.099609 0)"/>
       <use xlink:href="#DejaVuSans-65" transform="translate(454.882812 0)"/>
       <use xlink:href="#DejaVuSans-76" transform="translate(516.40625 0)"/>
       <use xlink:href="#DejaVuSans-65" transform="translate(575.585938 0)"/>
       <use xlink:href="#DejaVuSans-72" transform="translate(637.109375 0)"/>
      </g>
     </g>
    </g>
   </g>
   <g id="matplotlib.axis_2">
    <g id="ytick_1">
     <g id="line2d_5">
      <path d="M 46.965625 327.238125 
L 604.965625 327.238125 
" clip-path="url(#pbb340f3afc)" style="fill: none; stroke: #b0b0b0; stroke-opacity: 0.3; stroke-width: 0.8; stroke-linecap: square"/>
     </g>
     <g id="line2d_6">
      <defs>
       <path id="m37691767e2" d="M 0 0 
L -3.5 0 
" style="stroke: #000000; stroke-width: 0.8"/>
      </defs>
      <g>
       <use xlink:href="#m37691767e2" x="46.965625" y="327.238125" style="stroke: #000000; stroke-width: 0.8"/>
      </g>
     </g>
     <g id="text_5">
      <!-- 0 -->
      <g transform="translate(33.603125 331.037344) scale(0.1 -0.1)">
       <defs>
        <path id="DejaVuSans-30" d="M 2034 4250 
Q 1547 4250 1301 3770 
Q 1056 3291 1056 2328 
Q 1056 1369 1301 889 
Q 1547 409 2034 409 
Q 2525 409 2770 889 
Q 3016 1369 3016 2328 
Q 3016 3291 2770 3770 
Q 2525 4250 2034 4250 
z
M 2034 4750 
Q 2819 4750 3233 4129 
Q 3647 3509 3647 2328 
Q 3647 1150 3233 529 
Q 2819 -91 2034 -91 
Q 1250 -91 836 529 
Q 422 1150 422 2328 
Q 422 3509 836 4129 
Q 1250 4750 2034 4750 
z
" transform="scale(0.015625)"/>
       </defs>
       <use xlink:href="#DejaVuSans-30"/>
      </g>
     </g>
    </g>
    <g id="ytick_2">
     <g id="line2d_7">
      <path d="M 46.965625 281.885518 
L 604.965625 281.885518 
" clip-path="url(#pbb340f3afc)" style="fill: none; stroke: #b0b0b0; stroke-opacity: 0.3; stroke-width: 0.8; stroke-linecap: square"/>
     </g>
     <g id="line2d_8">
      <g>
       <use xlink:href="#m37691767e2" x="46.965625" y="281.885518" style="stroke: #000000; stroke-width: 0.8"/>
      </g>
     </g>
     <g id="text_6">
      <!-- 50 -->
      <g transform="translate(27.240625 285.684737) scale(0.1 -0.1)">
       <defs>
        <path id="DejaVuSans-35" d="M 691 4666 
L 3169 4666 
L 3169 4134 
L 1269 4134 
L 1269 2991 
Q 1406 3038 1543 3061 
Q 1681 3084 1819 3084 
Q 2600 3084 3056 2656 
Q 3513 2228 3513 1497 
Q 3513 744 3044 326 
Q 2575 -91 1722 -91 
Q 1428 -91 1123 -41 
Q 819 9 494 109 
L 494 744 
Q 775 591 1075 516 
Q 1375 441 1709 441 
Q 2250 441 2565 725 
Q 2881 1009 2881 1497 
Q 2881 1984 2565 2268 
Q 2250 2553 1709 2553 
Q 1456 2553 1204 2497 
Q 953 2441 691 2322 
L 691 4666 
z
" transform="scale(0.015625)"/>
       </defs>
       <use xlink:href="#DejaVuSans-35"/>
       <use xlink:href="#DejaVuSans-30" transform="translate(63.623047 0)"/>
      </g>
     </g>
    </g>
    <g id="ytick_3">
     <g id="line2d_9">
      <path d="M 46.965625 236.532911 
L 604.965625 236.532911 
" clip-path="url(#pbb340f3afc)" style="fill: none; stroke: #b0b0b0; stroke-opacity: 0.3; stroke-width: 0.8; stroke-linecap: square"/>
     </g>
     <g id="line2d_10">
      <g>
       <use xlink:href="#m37691767e2" x="46.965625" y="236.532911" style="stroke: #000000; stroke-width: 0.8"/>
      </g>
     </g>
     <g id="text_7">
      <!-- 100 -->
      <g transform="translate(20.878125 240.332129) scale(0.1 -0.1)">
       <defs>
        <path id="DejaVuSans-31" d="M 794 531 
L 1825 531 
L 1825 4091 
L 703 3866 
L 703 4441 
L 1819 4666 
L 2450 4666 
L 2450 531 
L 3481 531 
L 3481 0 
L 794 0 
L 794 531 
z
" transform="scale(0.015625)"/>
       </defs>
       <use xlink:href="#DejaVuSans-31"/>
       <use xlink:href="#DejaVuSans-30" transform="translate(63.623047 0)"/>
       <use xlink:href="#DejaVuSans-30" transform="translate(127.246094 0)"/>
      </g>
     </g>
    </g>
    <g id="ytick_4">
     <g id="line2d_11">
      <path d="M 46.965625 191.180304 
L 604.965625 191.180304 
" clip-path="url(#pbb340f3afc)" style="fill: none; stroke: #b0b0b0; stroke-opacity: 0.3; stroke-width: 0.8; stroke-linecap: square"/>
     </g>
     <g id="line2d_12">
      <g>
       <use xlink:href="#m37691767e2" x="46.965625" y="191.180304" style="stroke: #000000; stroke-width: 0.8"/>
      </g>
     </g>
     <g id="text_8">
      <!-- 150 -->
      <g transform="translate(20.878125 194.979522) scale(0.1 -0.1)">
       <use xlink:href="#DejaVuSans-31"/>
       <use xlink:href="#DejaVuSans-35" transform="translate(63.623047 0)"/>
       <use xlink:href="#DejaVuSans-30" transform="translate(127.246094 0)"/>
      </g>
     </g>
    </g>
    <g id="ytick_5">
     <g id="line2d_13">
      <path d="M 46.965625 145.827696 
L 604.965625 145.827696 
" clip-path="url(#pbb340f3afc)" style="fill: none; stroke: #b0b0b0; stroke-opacity: 0.3; stroke-width: 0.8; stroke-linecap: square"/>
     </g>
     <g id="line2d_14">
      <g>
       <use xlink:href="#m37691767e2" x="46.965625" y="145.827696" style="stroke: #000000; stroke-width: 0.8"/>
      </g>
     </g>
     <g id="text_9">
      <!-- 200 -->
      <g transform="translate(20.878125 149.626915) scale(0.1 -0.1)">
       <defs>
        <path id="DejaVuSans-32" d="M 1228 531 
L 3431 531 
L 3431 0 
L 469 0 
L 469 531 
Q 828 903 1448 1529 
Q 2069 2156 2228 2338 
Q 2531 2678 2651 2914 
Q 2772 3150 2772 3378 
Q 2772 3750 2511 3984 
Q 2250 4219 1831 4219 
Q 1534 4219 1204 4116 
Q 875 4013 500 3803 
L 500 4441 
Q 881 4594 1212 4672 
Q 1544 4750 1819 4750 
Q 2544 4750 2975 4387 
Q 3406 4025 3406 3419 
Q 3406 3131 3298 2873 
Q 3191 2616 2906 2266 
Q 2828 2175 2409 1742 
Q 1991 1309 1228 531 
z
" transform="scale(0.015625)"/>
       </defs>
       <use xlink:href="#DejaVuSans-32"/>
       <use xlink:href="#DejaVuSans-30" transform="translate(63.623047 0)"/>
       <use xlink:href="#DejaVuSans-30" transform="translate(127.246094 0)"/>
      </g>
     </g>
    </g>
    <g id="ytick_6">
     <g id="line2d_15">
      <path d="M 46.965625 100.475089 
L 604.965625 100.475089 
" clip-path="url(#pbb340f3afc)" style="fill: none; stroke: #b0b0b0; stroke-opacity: 0.3; stroke-width: 0.8; stroke-linecap: square"/>
     </g>
     <g id="line2d_16">
      <g>
       <use xlink:href="#m37691767e2" x="46.965625" y="100.475089" style="stroke: #000000; stroke-width: 0.8"/>
      </g>
     </g>
     <g id="text_10">
      <!-- 250 -->
      <g transform="translate(20.878125 104.274308) scale(0.1 -0.1)">
       <use xlink:href="#DejaVuSans-32"/>
       <use xlink:href="#DejaVuSans-35" transform="translate(63.623047 0)"/>
       <use xlink:href="#DejaVuSans-30" transform="translate(127.246094 0)"/>
      </g>
     </g>
    </g>
    <g id="ytick_7">
     <g id="line2d_17">
      <path d="M 46.965625 55.122482 
L 604.965625 55.122482 
" clip-path="url(#pbb340f3afc)" style="fill: none; stroke: #b0b0b0; stroke-opacity: 0.3; stroke-width: 0.8; stroke-linecap: square"/>
     </g>
     <g id="line2d_18">
      <g>
       <use xlink:href="#m37691767e2" x="46.965625" y="55.122482" style="stroke: #000000; stroke-width: 0.8"/>
      </g>
     </g>
     <g id="text_11">
      <!-- 300 -->
      <g transform="translate(20.878125 58.921701) scale(0.1 -0.1)">
       <defs>
        <path id="DejaVuSans-33" d="M 2597 2516 
Q 3050 2419 3304 2112 
Q 3559 1806 3559 1356 
Q 3559 666 3084 287 
Q 2609 -91 1734 -91 
Q 1441 -91 1130 -33 
Q 819 25 488 141 
L 488 750 
Q 750 597 1062 519 
Q 1375 441 1716 441 
Q 2309 441 2620 675 
Q 2931 909 2931 1356 
Q 2931 1769 2642 2001 
Q 2353 2234 1838 2234 
L 1294 2234 
L 1294 2753 
L 1863 2753 
Q 2328 2753 2575 2939 
Q 2822 3125 2822 3475 
Q 2822 3834 2567 4026 
Q 2313 4219 1838 4219 
Q 1578 4219 1281 4162 
Q 984 4106 628 3988 
L 628 4550 
Q 988 4650 1302 4700 
Q 1616 4750 1894 4750 
Q 2613 4750 3031 4423 
Q 3450 4097 3450 3541 
Q 3450 3153 3228 2886 
Q 3006 2619 2597 2516 
z
" transform="scale(0.015625)"/>
       </defs>
       <use xlink:href="#DejaVuSans-33"/>
       <use xlink:href="#DejaVuSans-30" transform="translate(63.623047 0)"/>
       <use xlink:href="#DejaVuSans-30" transform="translate(127.246094 0)"/>
      </g>
     </g>
    </g>
    <g id="text_12">
     <!-- Final compliance (J) -->
     <g transform="translate(14.798438 223.546875) rotate(-90) scale(0.1 -0.1)">
      <defs>
       <path id="DejaVuSans-46" d="M 628 4666 
L 3309 4666 
L 3309 4134 
L 1259 4134 
L 1259 2759 
L 3109 2759 
L 3109 2228 
L 1259 2228 
L 1259 0 
L 628 0 
L 628 4666 
z
" transform="scale(0.015625)"/>
       <path id="DejaVuSans-20" transform="scale(0.015625)"/>
       <path id="DejaVuSans-6f" d="M 1959 3097 
Q 1497 3097 1228 2736 
Q 959 2375 959 1747 
Q 959 1119 1226 758 
Q 1494 397 1959 397 
Q 2419 397 2687 759 
Q 2956 1122 2956 1747 
Q 2956 2369 2687 2733 
Q 2419 3097 1959 3097 
z
M 1959 3584 
Q 2709 3584 3137 3096 
Q 3566 2609 3566 1747 
Q 3566 888 3137 398 
Q 2709 -91 1959 -91 
Q 1206 -91 779 398 
Q 353 888 353 1747 
Q 353 2609 779 3096 
Q 1206 3584 1959 3584 
z
" transform="scale(0.015625)"/>
       <path id="DejaVuSans-28" d="M 1984 4856 
Q 1566 4138 1362 3434 
Q 1159 2731 1159 2009 
Q 1159 1288 1364 580 
Q 1569 -128 1984 -844 
L 1484 -844 
Q 1016 -109 783 600 
Q 550 1309 550 2009 
Q 550 2706 781 3412 
Q 1013 4119 1484 4856 
L 1984 4856 
z
" transform="scale(0.015625)"/>
       <path id="DejaVuSans-4a" d="M 628 4666 
L 1259 4666 
L 1259 325 
Q 1259 -519 939 -900 
Q 619 -1281 -91 -1281 
L -331 -1281 
L -331 -750 
L -134 -750 
Q 284 -750 456 -515 
Q 628 -281 628 325 
L 628 4666 
z
" transform="scale(0.015625)"/>
       <path id="DejaVuSans-29" d="M 513 4856 
L 1013 4856 
Q 1481 4119 1714 3412 
Q 1947 2706 1947 2009 
Q 1947 1309 1714 600 
Q 1481 -109 1013 -844 
L 513 -844 
Q 928 -128 1133 580 
Q 1338 1288 1338 2009 
Q 1338 2731 1133 3434 
Q 928 4138 513 4856 
z
" transform="scale(0.015625)"/>
      </defs>
      <use xlink:href="#DejaVuSans-46"/>
      <use xlink:href="#DejaVuSans-69" transform="translate(50.269531 0)"/>
      <use xlink:href="#DejaVuSans-6e" transform="translate(78.052734 0)"/>
      <use xlink:href="#DejaVuSans-61" transform="translate(141.431641 0)"/>
      <use xlink:href="#DejaVuSans-6c" transform="translate(202.710938 0)"/>
      <use xlink:href="#DejaVuSans-20" transform="translate(230.494141 0)"/>
      <use xlink:href="#DejaVuSans-63" transform="translate(262.28125 0)"/>
      <use xlink:href="#DejaVuSans-6f" transform="translate(317.261719 0)"/>
      <use xlink:href="#DejaVuSans-6d" transform="translate(378.443359 0)"/>
      <use xlink:href="#DejaVuSans-70" transform="translate(475.855469 0)"/>
      <use xlink:href="#DejaVuSans-6c" transform="translate(539.332031 0)"/>
      <use xlink:href="#DejaVuSans-69" transform="translate(567.115234 0)"/>
      <use xlink:href="#DejaVuSans-61" transform="translate(594.898438 0)"/>
      <use xlink:href="#DejaVuSans-6e" transform="translate(656.177734 0)"/>
      <use xlink:href="#DejaVuSans-63" transform="translate(719.556641 0)"/>
      <use xlink:href="#DejaVuSans-65" transform="translate(774.537109 0)"/>
      <use xlink:href="#DejaVuSans-20" transform="translate(836.060547 0)"/>
      <use xlink:href="#DejaVuSans-28" transform="translate(867.847656 0)"/>
      <use xlink:href="#DejaVuSans-4a" transform="translate(906.861328 0)"/>
      <use xlink:href="#DejaVuSans-29" transform="translate(936.353516 0)"/>
     </g>
    </g>
   </g>
   <g id="LineCollection_1">
    <path d="M 90.128304 140.369057 
L 90.128304 139.913716 
" clip-path="url(#pbb340f3afc)" style="fill: none; stroke: #000000; stroke-width: 1.5"/>
    <path d="M 223.621127 156.084642 
L 223.621127 155.752661 
" clip-path="url(#pbb340f3afc)" style="fill: none; stroke: #000000; stroke-width: 1.5"/>
    <path d="M 357.11395 302.832073 
L 357.11395 302.694201 
" clip-path="url(#pbb340f3afc)" style="fill: none; stroke: #000000; stroke-width: 1.5"/>
    <path d="M 490.606773 147.250861 
L 490.606773 146.086206 
" clip-path="url(#pbb340f3afc)" style="fill: none; stroke: #000000; stroke-width: 1.5"/>
   </g>
   <g id="line2d_19">
    <defs>
     <path id="md4f13991de" d="M 3 0 
L -3 -0 
" style="stroke: #000000"/>
    </defs>
    <g clip-path="url(#pbb340f3afc)">
     <use xlink:href="#md4f13991de" x="90.128304" y="140.369057" style="fill: #1f77b4; stroke: #000000"/>
     <use xlink:href="#md4f13991de" x="223.621127" y="156.084642" style="fill: #1f77b4; stroke: #000000"/>
     <use xlink:href="#md4f13991de" x="357.11395" y="302.832073" style="fill: #1f77b4; stroke: #000000"/>
     <use xlink:href="#md4f13991de" x="490.606773" y="147.250861" style="fill: #1f77b4; stroke: #000000"/>
    </g>
   </g>
   <g id="line2d_20">
    <g clip-path="url(#pbb340f3afc)">
     <use xlink:href="#md4f13991de" x="90.128304" y="139.913716" style="fill: #1f77b4; stroke: #000000"/>
     <use xlink:href="#md4f13991de" x="223.621127" y="155.752661" style="fill: #1f77b4; stroke: #000000"/>
     <use xlink:href="#md4f13991de" x="357.11395" y="302.694201" style="fill: #1f77b4; stroke: #000000"/>
     <use xlink:href="#md4f13991de" x="490.606773" y="146.086206" style="fill: #1f77b4; stroke: #000000"/>
    </g>
   </g>
   <g id="LineCollection_2">
    <path d="M 125.726391 60.030541 
L 125.726391 48.244306 
" clip-path="url(#pbb340f3afc)" style="fill: none; stroke: #000000; stroke-width: 1.5"/>
    <path d="M 259.219214 78.71128 
L 259.219214 70.146894 
" clip-path="url(#pbb340f3afc)" style="fill: none; stroke: #000000; stroke-width: 1.5"/>
    <path d="M 392.712036 292.869012 
L 392.712036 291.934749 
" clip-path="url(#pbb340f3afc)" style="fill: none; stroke: #000000; stroke-width: 1.5"/>
    <path d="M 526.204859 56.813227 
L 526.204859 36.838125 
" clip-path="url(#pbb340f3afc)" style="fill: none; stroke: #000000; stroke-width: 1.5"/>
   </g>
   <g id="line2d_21">
    <g clip-path="url(#pbb340f3afc)">
     <use xlink:href="#md4f13991de" x="125.726391" y="60.030541" style="fill: #1f77b4; stroke: #000000"/>
     <use xlink:href="#md4f13991de" x="259.219214" y="78.71128" style="fill: #1f77b4; stroke: #000000"/>
     <use xlink:href="#md4f13991de" x="392.712036" y="292.869012" style="fill: #1f77b4; stroke: #000000"/>
     <use xlink:href="#md4f13991de" x="526.204859" y="56.813227" style="fill: #1f77b4; stroke: #000000"/>
    </g>
   </g>
   <g id="line2d_22">
    <g clip-path="url(#pbb340f3afc)">
     <use xlink:href="#md4f13991de" x="125.726391" y="48.244306" style="fill: #1f77b4; stroke: #000000"/>
     <use xlink:href="#md4f13991de" x="259.219214" y="70.146894" style="fill: #1f77b4; stroke: #000000"/>
     <use xlink:href="#md4f13991de" x="392.712036" y="291.934749" style="fill: #1f77b4; stroke: #000000"/>
     <use xlink:href="#md4f13991de" x="526.204859" y="36.838125" style="fill: #1f77b4; stroke: #000000"/>
    </g>
   </g>
   <g id="LineCollection_3">
    <path d="M 161.324477 144.247612 
L 161.324477 141.038461 
" clip-path="url(#pbb340f3afc)" style="fill: none; stroke: #000000; stroke-width: 1.5"/>
    <path d="M 294.8173 156.541796 
L 294.8173 156.33136 
" clip-path="url(#pbb340f3afc)" style="fill: none; stroke: #000000; stroke-width: 1.5"/>
    <path d="M 428.310123 302.711435 
L 428.310123 302.615288 
" clip-path="url(#pbb340f3afc)" style="fill: none; stroke: #000000; stroke-width: 1.5"/>
    <path d="M 561.802946 152.950777 
L 561.802946 150.697659 
" clip-path="url(#pbb340f3afc)" style="fill: none; stroke: #000000; stroke-width: 1.5"/>
   </g>
   <g id="line2d_23">
    <g clip-path="url(#pbb340f3afc)">
     <use xlink:href="#md4f13991de" x="161.324477" y="144.247612" style="fill: #1f77b4; stroke: #000000"/>
     <use xlink:href="#md4f13991de" x="294.8173" y="156.541796" style="fill: #1f77b4; stroke: #000000"/>
     <use xlink:href="#md4f13991de" x="428.310123" y="302.711435" style="fill: #1f77b4; stroke: #000000"/>
     <use xlink:href="#md4f13991de" x="561.802946" y="152.950777" style="fill: #1f77b4; stroke: #000000"/>
    </g>
   </g>
   <g id="line2d_24">
    <g clip-path="url(#pbb340f3afc)">
     <use xlink:href="#md4f13991de" x="161.324477" y="141.038461" style="fill: #1f77b4; stroke: #000000"/>
     <use xlink:href="#md4f13991de" x="294.8173" y="156.33136" style="fill: #1f77b4; stroke: #000000"/>
     <use xlink:href="#md4f13991de" x="428.310123" y="302.615288" style="fill: #1f77b4; stroke: #000000"/>
     <use xlink:href="#md4f13991de" x="561.802946" y="150.697659" style="fill: #1f77b4; stroke: #000000"/>
    </g>
   </g>
   <g id="patch_15">
    <path d="M 46.965625 327.238125 
L 46.965625 22.318125 
" style="fill: none; stroke: #000000; stroke-width: 0.8; stroke-linejoin: miter; stroke-linecap: square"/>
   </g>
   <g id="patch_16">
    <path d="M 604.965625 327.238125 
L 604.965625 22.318125 
" style="fill: none; stroke: #000000; stroke-width: 0.8; stroke-linejoin: miter; stroke-linecap: square"/>
   </g>
   <g id="patch_17">
    <path d="M 46.965625 327.238125 
L 604.965625 327.238125 
" style="fill: none; stroke: #000000; stroke-width: 0.8; stroke-linejoin: miter; stroke-linecap: square"/>
   </g>
   <g id="patch_18">
    <path d="M 46.965625 22.318125 
L 604.965625 22.318125 
" style="fill: none; stroke: #000000; stroke-width: 0.8; stroke-linejoin: miter; stroke-linecap: square"/>
   </g>
   <g id="text_13">
    <!-- Optimiser comparison across benchmarks -->
    <g transform="translate(199.642188 16.318125) scale(0.12 -0.12)">
     <defs>
      <path id="DejaVuSans-4f" d="M 2522 4238 
Q 1834 4238 1429 3725 
Q 1025 3213 1025 2328 
Q 1025 1447 1429 934 
Q 1834 422 2522 422 
Q 3209 422 3611 934 
Q 4013 1447 4013 2328 
Q 4013 3213 3611 3725 
Q 3209 4238 2522 4238 
z
M 2522 4750 
Q 3503 4750 4090 4092 
Q 4678 3434 4678 2328 
Q 4678 1225 4090 567 
Q 3503 -91 2522 -91 
Q 1538 -91 948 565 
Q 359 1222 359 2328 
Q 359 3434 948 4092 
Q 1538 4750 2522 4750 
z
" transform="scale(0.015625)"/>
      <path id="DejaVuSans-73" d="M 2834 3397 
L 2834 2853 
Q 2591 2978 2328 3040 
Q 2066 3103 1784 3103 
Q 1356 3103 1142 2972 
Q 928 2841 928 2578 
Q 928 2378 1081 2264 
Q 1234 2150 1697 2047 
L 1894 2003 
Q 2506 1872 2764 1633 
Q 3022 1394 3022 966 
Q 3022 478 2636 193 
Q 2250 -91 1575 -91 
Q 1294 -91 989 -36 
Q 684 19 347 128 
L 347 722 
Q 666 556 975 473 
Q 1284 391 1588 391 
Q 1994 391 2212 530 
Q 2431 669 2431 922 
Q 2431 1156 2273 1281 
Q 2116 1406 1581 1522 
L 1381 1569 
Q 847 1681 609 1914 
Q 372 2147 372 2553 
Q 372 3047 722 3315 
Q 1072 3584 1716 3584 
Q 2034 3584 2315 3537 
Q 2597 3491 2834 3397 
z
" transform="scale(0.015625)"/>
      <path id="DejaVuSans-68" d="M 3513 2113 
L 3513 0 
L 2938 0 
L 2938 2094 
Q 2938 2591 2744 2837 
Q 2550 3084 2163 3084 
Q 1697 3084 1428 2787 
Q 1159 2491 1159 1978 
L 1159 0 
L 581 0 
L 581 4863 
L 1159 4863 
L 1159 2956 
Q 1366 3272 1645 3428 
Q 1925 3584 2291 3584 
Q 2894 3584 3203 3211 
Q 3513 2838 3513 2113 
z
" transform="scale(0.015625)"/>
      <path id="DejaVuSans-6b" d="M 581 4863 
L 1159 4863 
L 1159 1991 
L 2875 3500 
L 3609 3500 
L 1753 1863 
L 3688 0 
L 2938 0 
L 1159 1709 
L 1159 0 
L 581 0 
L 581 4863 
z
" transform="scale(0.015625)"/>
     </defs>
     <use xlink:href="#DejaVuSans-4f"/>
     <use xlink:href="#DejaVuSans-70" transform="translate(78.710938 0)"/>
     <use xlink:href="#DejaVuSans-74" transform="translate(142.1875 0)"/>
     <use xlink:href="#DejaVuSans-69" transform="translate(181.396484 0)"/>
     <use xlink:href="#DejaVuSans-6d" transform="translate(209.179688 0)"/>
     <use xlink:href="#DejaVuSans-69" transform="translate(306.591797 0)"/>
     <use xlink:href="#DejaVuSans-73" transform="translate(334.375 0)"/>
     <use xlink:href="#DejaVuSans-65" transform="translate(386.474609 0)"/>
     <use xlink:href="#DejaVuSans-72" transform="translate(447.998047 0)"/>
     <use xlink:href="#DejaVuSans-20" transform="translate(489.111328 0)"/>
     <use xlink:href="#DejaVuSans-63" transform="translate(520.898438 0)"/>
     <use xlink:href="#DejaVuSans-6f" transform="translate(575.878906 0)"/>
     <use xlink:href="#DejaVuSans-6d" transform="translate(637.060547 0)"/>
     <use xlink:href="#DejaVuSans-70" transform="translate(734.472656 0)"/>
     <use xlink:href="#DejaVuSans-61" transform="translate(797.949219 0)"/>
     <use xlink:href="#DejaVuSans-72" transform="translate(859.228516 0)"/>
     <use xlink:href="#DejaVuSans-69" transform="translate(900.341797 0)"/>
     <use xlink:href="#DejaVuSans-73" transform="translate(928.125 0)"/>
     <use xlink:href="#DejaVuSans-6f" transform="translate(980.224609 0)"/>
     <use xlink:href="#DejaVuSans-6e" transform="translate(1041.40625 0)"/>
     <use xlink:href="#DejaVuSans-20" transform="translate(1104.785156 0)"/>
     <use xlink:href="#DejaVuSans-61" transform="translate(1136.572266 0)"/>
     <use xlink:href="#DejaVuSans-63" transform="translate(1197.851562 0)"/>
     <use xlink:href="#DejaVuSans-72" transform="translate(1252.832031 0)"/>
     <use xlink:href="#DejaVuSans-6f" transform="translate(1291.695312 0)"/>
     <use xlink:href="#DejaVuSans-73" transform="translate(1352.876953 0)"/>
     <use xlink:href="#DejaVuSans-73" transform="translate(1404.976562 0)"/>
     <use xlink:href="#DejaVuSans-20" transform="translate(1457.076172 0)"/>
     <use xlink:href="#DejaVuSans-62" transform="translate(1488.863281 0)"/>
     <use xlink:href="#DejaVuSans-65" transform="translate(1552.339844 0)"/>
     <use xlink:href="#DejaVuSans-6e" transform="translate(1613.863281 0)"/>
     <use xlink:href="#DejaVuSans-63" transform="translate(1677.242188 0)"/>
     <use xlink:href="#DejaVuSans-68" transform="translate(1732.222656 0)"/>
     <use xlink:href="#DejaVuSans-6d" transform="translate(1795.601562 0)"/>
     <use xlink:href="#DejaVuSans-61" transform="translate(1893.013672 0)"/>
     <use xlink:href="#DejaVuSans-72" transform="translate(1954.292969 0)"/>
     <use xlink:href="#DejaVuSans-6b" transform="translate(1995.40625 0)"/>
     <use xlink:href="#DejaVuSans-73" transform="translate(2053.316406 0)"/>
    </g>
   </g>
   <g id="legend_1">
    <g id="patch_19">
     <path d="M 297.917188 89.030625 
L 354.014063 89.030625 
Q 356.014063 89.030625 356.014063 87.030625 
L 356.014063 29.318125 
Q 356.014063 27.318125 354.014063 27.318125 
L 297.917188 27.318125 
Q 295.917188 27.318125 295.917188 29.318125 
L 295.917188 87.030625 
Q 295.917188 89.030625 297.917188 89.030625 
z
" style="fill: #ffffff; opacity: 0.8; stroke: #cccccc; stroke-linejoin: miter"/>
    </g>
    <g id="text_14">
     <!-- Optimiser -->
     <g transform="translate(301.510156 38.916562) scale(0.1 -0.1)">
      <use xlink:href="#DejaVuSans-4f"/>
      <use xlink:href="#DejaVuSans-70" transform="translate(78.710938 0)"/>
      <use xlink:href="#DejaVuSans-74" transform="translate(142.1875 0)"/>
      <use xlink:href="#DejaVuSans-69" transform="translate(181.396484 0)"/>
      <use xlink:href="#DejaVuSans-6d" transform="translate(209.179688 0)"/>
      <use xlink:href="#DejaVuSans-69" transform="translate(306.591797 0)"/>
      <use xlink:href="#DejaVuSans-73" transform="translate(334.375 0)"/>
      <use xlink:href="#DejaVuSans-65" transform="translate(386.474609 0)"/>
      <use xlink:href="#DejaVuSans-72" transform="translate(447.998047 0)"/>
     </g>
    </g>
    <g id="patch_20">
     <path d="M 299.917188 53.594687 
L 319.917188 53.594687 
L 319.917188 46.594687 
L 299.917188 46.594687 
z
" style="fill: #1f77b4; opacity: 0.85"/>
    </g>
    <g id="text_15">
     <!-- OC -->
     <g transform="translate(327.917188 53.594687) scale(0.1 -0.1)">
      <defs>
       <path id="DejaVuSans-43" d="M 4122 4306 
L 4122 3641 
Q 3803 3938 3442 4084 
Q 3081 4231 2675 4231 
Q 1875 4231 1450 3742 
Q 1025 3253 1025 2328 
Q 1025 1406 1450 917 
Q 1875 428 2675 428 
Q 3081 428 3442 575 
Q 3803 722 4122 1019 
L 4122 359 
Q 3791 134 3420 21 
Q 3050 -91 2638 -91 
Q 1578 -91 968 557 
Q 359 1206 359 2328 
Q 359 3453 968 4101 
Q 1578 4750 2638 4750 
Q 3056 4750 3426 4639 
Q 3797 4528 4122 4306 
z
" transform="scale(0.015625)"/>
      </defs>
      <use xlink:href="#DejaVuSans-4f"/>
      <use xlink:href="#DejaVuSans-43" transform="translate(78.710938 0)"/>
     </g>
    </g>
    <g id="patch_21">
     <path d="M 299.917188 68.272812 
L 319.917188 68.272812 
L 319.917188 61.272812 
L 299.917188 61.272812 
z
" style="fill: #d62728; opacity: 0.85"/>
    </g>
    <g id="text_16">
     <!-- GD -->
     <g transform="translate(327.917188 68.272812) scale(0.1 -0.1)">
      <defs>
       <path id="DejaVuSans-47" d="M 3809 666 
L 3809 1919 
L 2778 1919 
L 2778 2438 
L 4434 2438 
L 4434 434 
Q 4069 175 3628 42 
Q 3188 -91 2688 -91 
Q 1594 -91 976 548 
Q 359 1188 359 2328 
Q 359 3472 976 4111 
Q 1594 4750 2688 4750 
Q 3144 4750 3555 4637 
Q 3966 4525 4313 4306 
L 4313 3634 
Q 3963 3931 3569 4081 
Q 3175 4231 2741 4231 
Q 1884 4231 1454 3753 
Q 1025 3275 1025 2328 
Q 1025 1384 1454 906 
Q 1884 428 2741 428 
Q 3075 428 3337 486 
Q 3600 544 3809 666 
z
" transform="scale(0.015625)"/>
       <path id="DejaVuSans-44" d="M 1259 4147 
L 1259 519 
L 2022 519 
Q 2988 519 3436 956 
Q 3884 1394 3884 2338 
Q 3884 3275 3436 3711 
Q 2988 4147 2022 4147 
L 1259 4147 
z
M 628 4666 
L 1925 4666 
Q 3281 4666 3915 4102 
Q 4550 3538 4550 2338 
Q 4550 1131 3912 565 
Q 3275 0 1925 0 
L 628 0 
L 628 4666 
z
" transform="scale(0.015625)"/>
      </defs>
      <use xlink:href="#DejaVuSans-47"/>
      <use xlink:href="#DejaVuSans-44" transform="translate(77.490234 0)"/>
     </g>
    </g>
    <g id="patch_22">
     <path d="M 299.917188 82.950937 
L 319.917188 82.950937 
L 319.917188 75.950937 
L 299.917188 75.950937 
z
" style="fill: #2ca02c; opacity: 0.85"/>
    </g>
    <g id="text_17">
     <!-- MMA -->
     <g transform="translate(327.917188 82.950937) scale(0.1 -0.1)">
      <defs>
       <path id="DejaVuSans-4d" d="M 628 4666 
L 1569 4666 
L 2759 1491 
L 3956 4666 
L 4897 4666 
L 4897 0 
L 4281 0 
L 4281 4097 
L 3078 897 
L 2444 897 
L 1241 4097 
L 1241 0 
L 628 0 
L 628 4666 
z
" transform="scale(0.015625)"/>
       <path id="DejaVuSans-41" d="M 2188 4044 
L 1331 1722 
L 3047 1722 
L 2188 4044 
z
M 1831 4666 
L 2547 4666 
L 4325 0 
L 3669 0 
L 3244 1197 
L 1141 1197 
L 716 0 
L 50 0 
L 1831 4666 
z
" transform="scale(0.015625)"/>
      </defs>
      <use xlink:href="#DejaVuSans-4d"/>
      <use xlink:href="#DejaVuSans-4d" transform="translate(86.279297 0)"/>
      <use xlink:href="#DejaVuSans-41" transform="translate(172.558594 0)"/>
     </g>
    </g>
   </g>
  </g>
 </g>
 <defs>
  <clipPath id="pbb340f3afc">
   <rect x="46.965625" y="22.318125" width="558" height="304.92"/>
  </clipPath>
 </defs>
</svg>
